<?xml version="1.0" encoding="UTF-8"?>
<svg version="1.1" xmlns="http://www.w3.org/2000/svg" width="590" height="590">
<path d="M0 0 C194.7 0 389.4 0 590 0 C590 194.7 590 389.4 590 590 C395.3 590 200.6 590 0 590 C0 395.3 0 200.6 0 0 Z " fill="#0C1014" transform="translate(0,0)"/>
<path d="M0 0 C4.44542784 3.02667427 8.50968241 7.14436482 10.9375 12 C11.94789681 20.86262343 10.37043457 28.25403011 5.9375 36 C5.28265625 36.639375 4.6278125 37.27875 3.953125 37.9375 C1.39532378 40.55478496 0.33607593 43.12517547 -1.0625 46.5 C-1.31813721 47.10932373 -1.57377441 47.71864746 -1.8371582 48.34643555 C-3.91476353 53.38980777 -5.58948896 58.52936368 -7.10546875 63.76953125 C-7.42128906 64.50558594 -7.73710937 65.24164063 -8.0625 66 C-9.5475 66.495 -9.5475 66.495 -11.0625 67 C-11.16691406 67.68191406 -11.27132812 68.36382812 -11.37890625 69.06640625 C-12.19802886 72.58161241 -13.53541305 75.63949369 -15 78.9375 C-16.90835275 83.24653237 -18.64192945 87.50495792 -20.0625 92 C-21.0525 92 -22.0425 92 -23.0625 92 C-23.17980469 92.73863281 -23.29710937 93.47726562 -23.41796875 94.23828125 C-24.05995695 96.9891034 -24.92082826 98.78789153 -26.375 101.1875 C-28.2160569 104.37374175 -29.73967422 107.50355226 -31.0625 110.9375 C-33.84588881 118.15204381 -37.42770789 124.87784831 -41.1875 131.625 C-42.95448378 134.82455119 -44.51488974 137.93479761 -45.75 141.375 C-46.92470853 144.61943308 -48.21259321 147.11414541 -50.0625 150 C-52.28924704 153.61846394 -54.08112584 156.80743523 -55.26171875 160.8828125 C-57.19211568 166.82286777 -60.07373649 172.25084353 -62.92996216 177.79013062 C-67.69997811 187.05151238 -72.22035422 196.28503754 -75.88671875 206.046875 C-77.56315031 210.25744729 -79.6985222 214.14023093 -82.0625 218 C-82.7225 218 -83.3825 218 -84.0625 218 C-84.206875 218.9075 -84.35125 219.815 -84.5 220.75 C-84.92659473 223.21476956 -85.41324221 225.58847107 -86.0625 228 C-86.7225 228 -87.3825 228 -88.0625 228 C-88.0625 229.32 -88.0625 230.64 -88.0625 232 C-88.7225 232.33 -89.3825 232.66 -90.0625 233 C-90.90991068 235.55554217 -91.53421926 238.13765919 -92.18359375 240.75 C-92.47363281 241.4925 -92.76367188 242.235 -93.0625 243 C-94.0525 243.33 -95.0425 243.66 -96.0625 244 C-96.76135767 245.906359 -96.76135767 245.906359 -97.0625 248.1875 C-97.84198852 252.24467386 -99.08274503 255.34506775 -101.0625 259 C-102.05960444 261.30929389 -103.03683056 263.62557247 -104 265.94921875 C-105.11067905 268.09299265 -106.36447883 269.31089233 -108.0625 271 C-108.71078594 272.31244828 -109.31417164 273.64786588 -109.875 275 C-111.79340277 279.05243996 -113.81356943 280.39484845 -118.0625 282 C-118.3925 282.33 -118.7225 282.66 -119.0625 283 C-126.05314977 283.74943697 -132.40243157 283.50110203 -138.0625 279 C-144.76804199 269.99541505 -147.68207727 257.59102399 -151.0625 247 C-151.35253906 246.10023438 -151.64257812 245.20046875 -151.94140625 244.2734375 C-153.07576341 240.64568659 -154.02735642 237.28114861 -154.5 233.5 C-154.99434126 230.42409885 -155.68150988 228.28360943 -156.87109375 225.44921875 C-159.03989348 220.13888087 -160.89670176 214.76017163 -162.6875 209.3125 C-162.9865625 208.41466797 -163.285625 207.51683594 -163.59375 206.59179688 C-164.87054639 202.73598476 -166.10814495 198.89754429 -167.140625 194.96875 C-167.80636006 191.89166055 -167.80636006 191.89166055 -170.1875 190.1875 C-173.77616841 188.70522392 -177.26990575 187.83565636 -181.0625 187 C-181.0625 186.34 -181.0625 185.68 -181.0625 185 C-181.701875 185.061875 -182.34125 185.12375 -183 185.1875 C-186.56324386 184.96934221 -189.39324343 183.97007285 -192.7421875 182.79296875 C-198.67387136 180.7658108 -204.81018633 179.61691943 -210.9609375 178.46484375 C-213.0625 178 -213.0625 178 -215.0625 177 C-215.0625 176.34 -215.0625 175.68 -215.0625 175 C-217.0115625 175.0309375 -217.0115625 175.0309375 -219 175.0625 C-220.35415633 175.08399454 -221.71006083 175.07148199 -223.0625 175 C-223.3925 174.67 -223.7225 174.34 -224.0625 174 C-225.55746842 173.79300437 -227.0591592 173.63320741 -228.5625 173.5 C-232.95138889 173.11111111 -232.95138889 173.11111111 -234.0625 172 C-235.41413027 171.8669073 -236.76927373 171.76889008 -238.125 171.6875 C-242.44429518 171.26994532 -245.40095003 169.99805276 -249.15234375 167.90234375 C-251.27245551 166.77713337 -251.27245551 166.77713337 -254.75 166.5625 C-260.20157167 165.63676141 -262.13599936 162.20194677 -265.375 158 C-268.19585384 152.76127145 -267.79039811 146.74890958 -267.0625 141 C-265.4375 137.5625 -265.4375 137.5625 -263.0625 135 C-262.67320312 134.49082031 -262.28390625 133.98164063 -261.8828125 133.45703125 C-257.4985013 128.20364061 -251.52211655 126.64391439 -245.0625 125 C-244.4025 125 -243.7425 125 -243.0625 125 C-243.0625 124.34 -243.0625 123.68 -243.0625 123 C-240.92360436 121.81172464 -238.78453908 120.62377206 -236.64453125 119.4375 C-234.97177946 118.50622517 -233.30227506 117.56908345 -231.63671875 116.625 C-225.53059441 113.17683566 -225.53059441 113.17683566 -222.25 111.9375 C-219.91658881 111.12403738 -219.91658881 111.12403738 -218.3125 109 C-215.00382243 106.05895327 -211.34732377 105.69582608 -207.0625 105 C-207.0625 104.34 -207.0625 103.68 -207.0625 103 C-203.55473216 101.39644899 -200.91895121 100.77963136 -197.0625 101 C-196.5675 99.515 -196.5675 99.515 -196.0625 98 C-195.0725 98 -194.0825 98 -193.0625 98 C-192.5675 96.515 -192.5675 96.515 -192.0625 95 C-189.91015625 93.5703125 -189.91015625 93.5703125 -187.125 92.125 C-186.13371094 91.60808594 -185.14242187 91.09117187 -184.12109375 90.55859375 C-183.11175781 90.04425781 -182.10242188 89.52992188 -181.0625 89 C-180.14597656 88.51660156 -179.22945313 88.03320312 -178.28515625 87.53515625 C-174.17634987 85.40351986 -170.66332412 83.7559658 -166.0625 83 C-166.0625 82.34 -166.0625 81.68 -166.0625 81 C-164.10664675 79.99515796 -162.14773763 78.99626195 -160.1875 78 C-159.09695312 77.443125 -158.00640625 76.88625 -156.8828125 76.3125 C-154.0625 75 -154.0625 75 -152.0625 75 C-152.0625 74.34 -152.0625 73.68 -152.0625 73 C-151.051875 72.566875 -150.04125 72.13375 -149 71.6875 C-148.36320312 71.41292969 -147.72640625 71.13835937 -147.0703125 70.85546875 C-145.18031884 70.05019908 -143.27797584 69.27409187 -141.375 68.5 C-138.15272373 67.1880717 -138.15272373 67.1880717 -136 65.4375 C-134.0625 64 -134.0625 64 -130.9375 63 C-127.77634124 62.22470344 -127.77634124 62.22470344 -126.0625 59 C-121.28317393 55.65447175 -115.92041952 54.12464535 -110.4375 52.28125 C-107.36162258 51.11355579 -104.84012237 49.73601398 -102.0625 48 C-101.0725 47.67 -100.0825 47.34 -99.0625 47 C-98.7325 46.34 -98.4025 45.68 -98.0625 45 C-95.8828125 43.7109375 -95.8828125 43.7109375 -93.1875 42.375 C-92.30320312 41.92898437 -91.41890625 41.48296875 -90.5078125 41.0234375 C-88.0625 40 -88.0625 40 -85.0625 40 C-84.80726563 39.39285156 -84.55203125 38.78570312 -84.2890625 38.16015625 C-81.25109545 32.80985123 -74.43177963 30.61153667 -68.875 28.6796875 C-65.59101114 27.44819168 -62.79050096 25.47840063 -59.875 23.5625 C-57.29693975 22.13024431 -54.80517389 21.06862701 -52.0625 20 C-45.08547734 17.31604613 -45.08547734 17.31604613 -40.0625 12 C-37.78515625 10.61328125 -37.78515625 10.61328125 -35.125 9.3125 C-34.24972656 8.87550781 -33.37445313 8.43851563 -32.47265625 7.98828125 C-30.0625 7 -30.0625 7 -27.0625 7 C-27.0625 6.34 -27.0625 5.68 -27.0625 5 C-24.56830686 3.98295037 -22.06875963 2.98650645 -19.5625 2 C-18.86640625 1.71382812 -18.1703125 1.42765625 -17.453125 1.1328125 C-11.4707862 -1.19365259 -6.26837095 -2.046815 0 0 Z " fill="#00E3B2" transform="translate(401.0625,176)"/>
<path d="M0 0 C5.25369082 0.04758778 9.95977644 1.85412523 14.5625 4.3125 C14.8925 4.9725 15.2225 5.6325 15.5625 6.3125 C17.20791134 7.03002613 18.87950465 7.6882013 20.5625 8.3125 C22.33728694 9.11632727 24.10801768 9.92915872 25.875 10.75 C29.25530751 12.30768224 32.60718494 13.72423896 36.125 14.9375 C39.5625 16.3125 39.5625 16.3125 41.5625 19.3125 C43.44582058 20.24362231 43.44582058 20.24362231 45.5625 20.875 C48.32877364 21.77505595 49.45478973 22.20478973 51.5625 24.3125 C54.13311311 24.96017793 54.13311311 24.96017793 56.5625 25.3125 C56.5625 25.9725 56.5625 26.6325 56.5625 27.3125 C57.27535156 27.26351562 57.98820312 27.21453125 58.72265625 27.1640625 C62.01810433 27.33631426 64.04764832 28.23854442 67 29.6875 C69.8073999 31.05326211 72.49763586 32.29111142 75.46484375 33.26953125 C79.01145912 34.46366278 82.33563722 35.97790184 85.6875 37.625 C86.29464844 37.90794922 86.90179688 38.19089844 87.52734375 38.48242188 C91.56846866 40.46776756 94.1563965 42.49385812 96.5625 46.3125 C96.5625 50.32126975 96.19269245 52.48673058 93.75 55.6875 C91.56362702 57.31166279 90.14628085 57.68882876 87.5625 58.3125 C87.2325 59.3025 86.9025 60.2925 86.5625 61.3125 C82.40451723 63.68849015 77.96454844 65.43755344 73.5625 67.3125 C70.38394422 68.6011999 70.38394422 68.6011999 68.5625 71.3125 C66.61667148 71.84018231 64.66784224 72.360191 62.703125 72.8125 C59.90698347 73.46561335 57.23759447 74.26856069 54.5625 75.3125 C54.2325 75.9725 53.9025 76.6325 53.5625 77.3125 C49.50960294 79.8218872 45.32059749 81.71773781 40.5625 82.3125 C40.0675 83.7975 40.0675 83.7975 39.5625 85.3125 C37.95917209 85.39371924 36.35465974 85.45179134 34.75 85.5 C33.41001953 85.55220703 33.41001953 85.55220703 32.04296875 85.60546875 C29.5625 85.3125 29.5625 85.3125 27.76953125 83.92578125 C26.38019112 82.0688315 26.12015191 80.54310765 25.5625 78.3125 C25.10875 77.85875 24.655 77.405 24.1875 76.9375 C20.98572334 73.73572334 19.624105 70.42138999 19.375 65.9375 C19.436875 65.07125 19.49875 64.205 19.5625 63.3125 C18.5725 63.3125 17.5825 63.3125 16.5625 63.3125 C15.67656246 61.54062492 14.79092349 59.76860029 13.90625 57.99609375 C12.8894395 55.96542859 11.86774786 53.93720657 10.84375 51.91015625 C10.22915792 50.69010857 9.61457463 49.47005647 9 48.25 C8.42121094 47.10402344 7.84242188 45.95804688 7.24609375 44.77734375 C6.05631845 42.32878065 5.02382859 39.96358208 4.03515625 37.44140625 C3.54917969 36.40886719 3.06320313 35.37632812 2.5625 34.3125 C1.5725 33.9825 0.5825 33.6525 -0.4375 33.3125 C-1.93504309 30.87098033 -3.27057241 28.4834965 -4.5625 25.9375 C-4.92214844 25.25171875 -5.28179687 24.5659375 -5.65234375 23.859375 C-8.7334206 17.92801358 -10.52966359 13.00640586 -9.4375 6.3125 C-7 3.3125 -7 3.3125 -4.4375 1.3125 C-3.4375 0.3125 -3.4375 0.3125 0 0 Z " fill="#8DF6E0" transform="translate(205.4375,144.6875)"/>
<path d="M0 0 C2.7265625 0.06640625 2.7265625 0.06640625 5.0625 0.4375 C6.875 2.4375 6.875 2.4375 8.0625 5.4375 C8.83381888 6.70015724 9.6276527 7.94920138 10.4375 9.1875 C17.66700248 20.79390006 17.66700248 20.79390006 19.625 27.25 C20.75886336 30.96726793 22.14977158 32.80664852 25.0625 35.4375 C25.7468272 37.09699345 26.41073286 38.7649505 27.0625 40.4375 C28.50441548 43.16067185 30.01489152 45.83893149 31.52734375 48.5234375 C33.23281457 51.76079431 34.63077921 55.07043805 36.0625 58.4375 C37.33503232 61.16604133 38.66178352 63.86567517 40 66.5625 C40.33451172 67.25214844 40.66902344 67.94179688 41.01367188 68.65234375 C42.99878572 72.65317051 45.14389679 76.01892194 48.0625 79.4375 C49.97015451 82.58512994 50.0625 83.53116904 50.0625 87.4375 C50.7225 87.4375 51.3825 87.4375 52.0625 87.4375 C52.95792658 95.9772165 52.95792658 95.9772165 50.97265625 99.21484375 C48.38103495 101.58648658 46.11333525 102.42902746 42.6875 103 C39.13445554 102.44866551 36.69542916 101.37767391 33.57421875 99.6484375 C29.67688085 97.7694721 25.55704449 96.54620872 21.4296875 95.27661133 C17.63855603 94.08006009 14.299721 92.77102259 11.0625 90.4375 C11.0625 89.7775 11.0625 89.1175 11.0625 88.4375 C9.70125 88.251875 9.70125 88.251875 8.3125 88.0625 C5.45253836 87.51250738 3.50260282 86.97386103 1.0625 85.4375 C0.7325 84.7775 0.4025 84.1175 0.0625 83.4375 C-1.58113134 82.71590576 -3.24800386 82.04398579 -4.9375 81.4375 C-4.9375 80.7775 -4.9375 80.1175 -4.9375 79.4375 C-5.55496094 79.33953125 -6.17242187 79.2415625 -6.80859375 79.140625 C-12.20683483 78.1875109 -16.89252974 76.81545471 -21.83203125 74.4375 C-23.79879515 73.50337837 -25.77168361 72.75300563 -27.8125 72 C-31.46602638 70.17323681 -32.59717703 69.29092854 -33.9375 65.4375 C-34.60101392 57.55624932 -30.57165315 51.13627484 -26.9375 44.4375 C-24.67311096 40.10754633 -23.09987072 35.97878165 -21.78125 31.29296875 C-21.5028125 30.68066406 -21.224375 30.06835938 -20.9375 29.4375 C-19.9475 29.1075 -18.9575 28.7775 -17.9375 28.4375 C-17.834375 27.179375 -17.73125 25.92125 -17.625 24.625 C-17.33005108 21.02662323 -16.47552544 19.91143389 -13.9375 17.4375 C-13.08382106 15.37671048 -13.08382106 15.37671048 -12.5 13.125 C-10.44266848 6.47657076 -7.61693277 0.1901437 0 0 Z " fill="#8DF8E1" transform="translate(398.9375,285.5625)"/>
<path d="M0 0 C0.33 0 0.66 0 1 0 C0.6694314 5.33469334 0.39724199 8.75344752 -3 13 C-3.67084112 16.44579041 -3.67084112 16.44579041 -4 20 C-4.4375 22.875 -4.4375 22.875 -5 25 C-5.99 25.495 -5.99 25.495 -7 26 C-7 26.99 -7 27.98 -7 29 C-8.33333333 30.33333333 -9.66666667 31.66666667 -11 33 C-12.52752475 35.78481359 -12.52752475 35.78481359 -13.75 38.75 C-14.17796875 39.73484375 -14.6059375 40.7196875 -15.046875 41.734375 C-15.51867187 42.85585938 -15.51867187 42.85585938 -16 44 C-16.66 44 -17.32 44 -18 44 C-17.90912109 45.09441406 -17.90912109 45.09441406 -17.81640625 46.2109375 C-18.03661813 49.55628395 -18.97789835 50.94149845 -20.9375 53.625 C-22.78476694 56.18409794 -23.99394958 57.98184875 -25 61 C-25.99 61.495 -25.99 61.495 -27 62 C-27.85580402 64.75111869 -28.47309622 67.5291825 -29.12109375 70.3359375 C-30.03502069 73.1061516 -30.84173824 74.1291308 -33 76 C-34.03789581 77.64333504 -35.03567924 79.31243867 -36 81 C-36.515625 81.7425 -37.03125 82.485 -37.5625 83.25 C-38.87598782 85.76275932 -39.39613228 87.51466835 -39.9375 90.25 C-41.61419404 98.55100985 -45.81429798 105.72453687 -50 113 C-50.39832031 113.69996094 -50.79664063 114.39992188 -51.20703125 115.12109375 C-52.13428803 116.74952703 -53.06655143 118.37510805 -54 120 C-54.66 120 -55.32 120 -56 120 C-57.08999896 123.19213981 -58.10271258 126.37233309 -59 129.625 C-59.79874447 132.32076257 -60.63529617 134.56302887 -62 137 C-62.66 137 -63.32 137 -64 137 C-62.16884835 127.99683771 -58.32597745 120.32990914 -54.14550781 112.25341797 C-52.09947387 108.22850464 -50.17660405 104.14558243 -48.25 100.0625 C-47.88567871 99.29421875 -47.52135742 98.5259375 -47.14599609 97.734375 C-45.00777019 93.20567707 -42.93911266 88.65132888 -40.92700195 84.06518555 C-39.01089565 79.79646202 -37.00004814 75.58340955 -34.5 71.625 C-33.10682781 69.18694866 -32.13078042 66.8650291 -31.125 64.25 C-29.503157 60.08481229 -27.58284605 56.29236165 -25.359375 52.421875 C-22.04871205 46.52356745 -18.96054734 40.44059004 -16.375 34.1875 C-15.31731102 31.73558464 -14.22383887 29.59589152 -12.875 27.3125 C-11.40297935 24.71193018 -10.46338042 22.89612761 -10 20 C-9.01 20 -8.02 20 -7 20 C-7.0825 19.319375 -7.165 18.63875 -7.25 17.9375 C-6.96965903 14.64349356 -5.80940153 12.6922804 -4.08984375 9.9140625 C-2.29468661 6.76127755 -1.19923295 3.41781391 0 0 Z " fill="#034139" transform="translate(388,248)"/>
<path d="M0 0 C1.65 0 3.3 0 5 0 C1.47222251 3.70416636 -1.94071687 6.15316406 -6.75 7.9375 C-12.31513852 10.08487304 -17.58084912 12.53725761 -22.6875 15.625 C-25 17 -25 17 -27.3125 17.875 C-34.18976119 20.73619572 -34.18976119 20.73619572 -39 26 C-41.1796875 27.2890625 -41.1796875 27.2890625 -43.875 28.625 C-44.75929688 29.07101563 -45.64359375 29.51703125 -46.5546875 29.9765625 C-49 31 -49 31 -52 31 C-52.495 32.485 -52.495 32.485 -53 34 C-56.28305377 35.58072959 -59.54536928 36.84845643 -63 38 C-62.875 35.6875 -62.875 35.6875 -62 33 C-59.375 31.5 -59.375 31.5 -56 30 C-54.73227755 29.12942711 -53.48214249 28.23274031 -52.25 27.3125 C-49 25 -49 25 -47 25 C-47 24.34 -47 23.68 -47 23 C-44.41210938 21.92578125 -44.41210938 21.92578125 -41.82421875 20.8515625 C-39.73466068 19.93193308 -39.73466068 19.93193308 -37 18 C-36.01 18 -35.02 18 -34 18 C-33.57976562 17.57589844 -33.15953125 17.15179688 -32.7265625 16.71484375 C-30.26885725 14.27381976 -27.47918252 13.08077664 -24.375 11.5625 C-23.75052979 11.25610596 -23.12605957 10.94971191 -22.48266602 10.6340332 C-17.70531889 8.30420611 -12.89263843 6.07598091 -8 4 C-7.05125 3.5875 -6.1025 3.175 -5.125 2.75 C-3 2 -3 2 0 2 C0 1.34 0 0.68 0 0 Z " fill="#033C35" transform="translate(355,190)"/>
<path d="M0 0 C0 0.66 0 1.32 0 2 C1.0725 2.061875 2.145 2.12375 3.25 2.1875 C7 3 7 3 9.4375 5.4375 C11 8 11 8 11 10 C12.32 10 13.64 10 15 10 C15.144375 11.0725 15.28875 12.145 15.4375 13.25 C15.84343853 16.73067158 15.84343853 16.73067158 16.6484375 18.8828125 C17.14466414 21.87119957 16.25883135 23.81606763 15.1875 26.625 C14.83042969 27.58664063 14.47335937 28.54828125 14.10546875 29.5390625 C13 32 13 32 11 34 C11.165 33.2575 11.33 32.515 11.5 31.75 C12.81893043 21.9273189 12.81893043 21.9273189 10.375 12.5625 C5.98146032 7.82210193 2.36613712 4.38107213 -4.3125 3.625 C-9.88093142 3.64581657 -14.90484235 5.93334394 -20.0234375 7.90625 C-23 9 -23 9 -25 9 C-25 9.66 -25 10.32 -25 11 C-26.59766103 11.86627399 -28.20339944 12.71766465 -29.8125 13.5625 C-30.70582031 14.03816406 -31.59914063 14.51382813 -32.51953125 15.00390625 C-35 16 -35 16 -38 15 C-36.50260417 13.79557292 -35.00520833 12.59114583 -33.5078125 11.38671875 C-31.74707893 9.87729455 -31.74707893 9.87729455 -30 7 C-28.14034827 6.52663411 -26.27665888 6.06514879 -24.3984375 5.671875 C-21.61294927 4.89157537 -19.26282376 3.68848891 -16.6875 2.375 C-11.02144561 -0.33105679 -6.1864216 -0.53846997 0 0 Z " fill="#043E36" transform="translate(399,172)"/>
<path d="M0 0 C1.46726798 3.81489674 0.43336419 6.29011622 -1 10 C-1.66 10 -2.32 10 -3 10 C-3 11.32 -3 12.64 -3 14 C-3.66 14.33 -4.32 14.66 -5 15 C-5.84741068 17.55554217 -6.47171926 20.13765919 -7.12109375 22.75 C-7.41113281 23.4925 -7.70117188 24.235 -8 25 C-8.99 25.33 -9.98 25.66 -11 26 C-11.69885767 27.906359 -11.69885767 27.906359 -12 30.1875 C-12.77948852 34.24467386 -14.02024503 37.34506775 -16 41 C-16.99710444 43.30929389 -17.97433056 45.62557247 -18.9375 47.94921875 C-20.04817905 50.09299265 -21.30197883 51.31089233 -23 53 C-23.64828594 54.31244828 -24.25167164 55.64786588 -24.8125 57 C-26.73090277 61.05243996 -28.75106943 62.39484845 -33 64 C-33.33 64.33 -33.66 64.66 -34 65 C-41.43842251 65.79744073 -46.6704554 64.98526882 -53 61 C-53.33 60.34 -53.66 59.68 -54 59 C-53.41734375 59.144375 -52.8346875 59.28875 -52.234375 59.4375 C-45.41659555 60.98114818 -38.97305646 61.21566154 -32 61 C-31.67 59.68 -31.34 58.36 -31 57 C-30.38125 56.95875 -29.7625 56.9175 -29.125 56.875 C-28.073125 56.441875 -28.073125 56.441875 -27 56 C-25.6954344 53.00384054 -25.6954344 53.00384054 -25 50 C-24.34 50 -23.68 50 -23 50 C-22.81824219 49.37351562 -22.63648438 48.74703125 -22.44921875 48.1015625 C-22.19785156 47.28429687 -21.94648438 46.46703125 -21.6875 45.625 C-21.44386719 44.81289063 -21.20023437 44.00078125 -20.94921875 43.1640625 C-20 41 -20 41 -17 39 C-15.64945267 35.77369249 -14.98933388 32.91314729 -14.5625 29.4375 C-13.98428235 25.90394767 -13.15053713 23.83870901 -11 21 C-10.34 21 -9.68 21 -9 21 C-9 19.68 -9 18.36 -9 17 C-8.34 17 -7.68 17 -7 17 C-6.87625 16.236875 -6.7525 15.47375 -6.625 14.6875 C-6 12 -6 12 -4 9 C-3.34 9 -2.68 9 -2 9 C-2.04125 8.071875 -2.0825 7.14375 -2.125 6.1875 C-2 3 -2 3 0 0 Z " fill="#16B595" transform="translate(316,394)"/>
<path d="M0 0 C1 3 1 3 0.14453125 5.27734375 C-0.29503906 6.15519531 -0.73460937 7.03304687 -1.1875 7.9375 C-3.65996556 13.06735237 -5.42081426 18.20085617 -7.0078125 23.6640625 C-7.33523438 24.43492187 -7.66265625 25.20578125 -8 26 C-8.99 26.33 -9.98 26.66 -11 27 C-11.10441406 27.68191406 -11.20882813 28.36382812 -11.31640625 29.06640625 C-12.13552886 32.58161241 -13.47291305 35.63949369 -14.9375 38.9375 C-16.84585275 43.24653237 -18.57942945 47.50495792 -20 52 C-20.99 52 -21.98 52 -23 52 C-23.11730469 52.73863281 -23.23460937 53.47726562 -23.35546875 54.23828125 C-23.99745695 56.9891034 -24.85832826 58.78789153 -26.3125 61.1875 C-28.66637038 65.24402589 -30.40558993 69.33571392 -32.0078125 73.73828125 C-33.05840911 76.13314518 -34.35862117 77.97377811 -36 80 C-35.67 77.36 -35.34 74.72 -35 72 C-34.34 72 -33.68 72 -33 72 C-32.87625 71.29230469 -32.7525 70.58460938 -32.625 69.85546875 C-31.97474835 66.88463151 -31.05753311 64.1623962 -30 61.3125 C-29.649375 60.35988281 -29.29875 59.40726562 -28.9375 58.42578125 C-28 56 -28 56 -27 54 C-26.34 54 -25.68 54 -25 54 C-24.896875 53.360625 -24.79375 52.72125 -24.6875 52.0625 C-24.460625 51.381875 -24.23375 50.70125 -24 50 C-22.515 49.505 -22.515 49.505 -21 49 C-20.36333082 47.17012845 -20.36333082 47.17012845 -20 45 C-17.72141366 38.73388756 -14.98323656 32.67134403 -12.1484375 26.640625 C-10.91488874 23.804302 -9.96425825 20.93797435 -9 18 C-6.55006687 11.60017468 -4.12828506 5.50438008 0 0 Z " fill="#13B795" transform="translate(401,216)"/>
<path d="M0 0 C0.33 0 0.66 0 1 0 C0.6694314 5.33469334 0.39724199 8.75344752 -3 13 C-3.67084112 16.44579041 -3.67084112 16.44579041 -4 20 C-4.4375 22.875 -4.4375 22.875 -5 25 C-5.66 25.33 -6.32 25.66 -7 26 C-7 26.99 -7 27.98 -7 29 C-8.33333333 30.33333333 -9.66666667 31.66666667 -11 33 C-12.52752475 35.78481359 -12.52752475 35.78481359 -13.75 38.75 C-14.17796875 39.73484375 -14.6059375 40.7196875 -15.046875 41.734375 C-15.51867187 42.85585938 -15.51867187 42.85585938 -16 44 C-16.66 44 -17.32 44 -18 44 C-17.896875 44.721875 -17.79375 45.44375 -17.6875 46.1875 C-18.12449065 50.12041589 -20.10082197 51.46321923 -23 54 C-22.70456754 47.48571418 -21.46469616 43.50275273 -18 38 C-17.505 36.845 -17.01 35.69 -16.5 34.5 C-15.39544796 31.9227119 -14.2909508 29.70128031 -12.875 27.3125 C-11.40297935 24.71193018 -10.46338042 22.89612761 -10 20 C-9.01 20 -8.02 20 -7 20 C-7.0825 19.319375 -7.165 18.63875 -7.25 17.9375 C-6.96965903 14.64349356 -5.80940153 12.6922804 -4.08984375 9.9140625 C-2.29468661 6.76127755 -1.19923295 3.41781391 0 0 Z " fill="#03463C" transform="translate(388,248)"/>
<path d="M0 0 C3.09152119 0.44164588 5.91998769 0.97216963 8.875 2 C11.47841711 2.83309348 13.62619213 3.26082906 16.3125 3.5625 C20 4 20 4 21 5 C22.37024654 5.18524792 23.7470321 5.3230586 25.125 5.4375 C30.37822129 5.96449513 34.99408453 7.33136151 40 9 C40 9.66 40 10.32 40 11 C40.87140625 11.02578125 41.7428125 11.0515625 42.640625 11.078125 C49.94204466 11.42581165 56.12461983 12.40888064 62.96875 14.95703125 C67.32240041 16.45500117 71.77180066 17.31061807 76.28515625 18.19140625 C79.08737681 19.02602446 80.28326307 19.66547539 82 22 C82 22.66 82 23.32 82 24 C78.04 23.01 74.08 22.02 70 21 C70 20.34 70 19.68 70 19 C69.360625 19.061875 68.72125 19.12375 68.0625 19.1875 C64.49925614 18.96934221 61.66925657 17.97007285 58.3203125 16.79296875 C52.38862864 14.7658108 46.25231367 13.61691943 40.1015625 12.46484375 C38 12 38 12 36 11 C36 10.34 36 9.68 36 9 C34.700625 9.020625 33.40125 9.04125 32.0625 9.0625 C30.70834367 9.08399454 29.35243917 9.07148199 28 9 C27.67 8.67 27.34 8.34 27 8 C25.50503158 7.79300437 24.0033408 7.63320741 22.5 7.5 C18.11111111 7.11111111 18.11111111 7.11111111 17 6 C15.64836973 5.8669073 14.29322627 5.76889008 12.9375 5.6875 C7.88658909 5.20183549 4.3960321 3.47776355 0 1 C0 0.67 0 0.34 0 0 Z " fill="#16C39F" transform="translate(150,342)"/>
<path d="M0 0 C-0.78246094 0.40992188 -1.56492188 0.81984375 -2.37109375 1.2421875 C-3.38300781 1.78101563 -4.39492187 2.31984375 -5.4375 2.875 C-6.44683594 3.40867187 -7.45617187 3.94234375 -8.49609375 4.4921875 C-11.10140442 5.75654114 -11.10140442 5.75654114 -12 8 C-12.99 8.33 -13.98 8.66 -15 9 C-15.33 9.66 -15.66 10.32 -16 11 C-18.28515625 11.6328125 -18.28515625 11.6328125 -21.0625 12.125 C-21.98160156 12.29257812 -22.90070313 12.46015625 -23.84765625 12.6328125 C-24.91306641 12.81457031 -24.91306641 12.81457031 -26 13 C-26 13.66 -26 14.32 -26 15 C-27.6232687 15.6708712 -29.24867578 16.33657029 -30.875 17 C-31.77992188 17.37125 -32.68484375 17.7425 -33.6171875 18.125 C-36 19 -36 19 -38 19 C-38.165 19.598125 -38.33 20.19625 -38.5 20.8125 C-41.41191683 25.05904538 -47.19180402 25.84646419 -52 27 C-52.33 26.34 -52.66 25.68 -53 25 C-52.34 25 -51.68 25 -51 25 C-51 24.34 -51 23.68 -51 23 C-47.12315913 21.80712589 -44.08378077 21 -40 21 C-40 20.01 -40 19.02 -40 18 C-39.01 18 -38.02 18 -37 18 C-37 17.34 -37 16.68 -37 16 C-35.35 15.67 -33.7 15.34 -32 15 C-32 14.34 -32 13.68 -32 13 C-30.68 13 -29.36 13 -28 13 C-27.67 12.01 -27.34 11.02 -27 10 C-25.34795544 9.29788106 -23.68076231 8.63028587 -22 8 C-21.67 7.34 -21.34 6.68 -21 6 C-17.95808017 4.524797 -14.73977627 3.46221781 -11.5625 2.3125 C-10.67755859 1.97927734 -9.79261719 1.64605469 -8.88085938 1.30273438 C-8.03458984 0.99271484 -7.18832031 0.68269531 -6.31640625 0.36328125 C-5.53724854 0.07751221 -4.75809082 -0.20825684 -3.95532227 -0.50268555 C-2 -1 -2 -1 0 0 Z " fill="#022F27" transform="translate(220,266)"/>
<path d="M0 0 C0.33 1.32 0.66 2.64 1 4 C0.34 4 -0.32 4 -1 4 C-1.02578125 4.65226563 -1.0515625 5.30453125 -1.078125 5.9765625 C-1.46226946 11.89587945 -2.39397355 15.15762162 -6 20 C-7.09739659 22.28987448 -8.09120955 24.60665425 -9.0703125 26.94921875 C-10 29 -10 29 -12 32 C-12.66 32 -13.32 32 -14 32 C-13.896875 32.721875 -13.79375 33.44375 -13.6875 34.1875 C-14.12449065 38.12041589 -16.10082197 39.46321923 -19 42 C-19.33 41.34 -19.66 40.68 -20 40 C-19.67 39.01 -19.34 38.02 -19 37 C-18.01 36.505 -18.01 36.505 -17 36 C-15.95965972 33.52993494 -15.02011991 31.084749 -14.125 28.5625 C-13.58903896 27.10007807 -13.05258088 25.6378382 -12.515625 24.17578125 C-12.00978177 22.78408477 -11.50452404 21.39217526 -11 20 C-7.34543179 9.92490613 -7.34543179 9.92490613 -3 6 C-1.93988057 4.03120677 -0.92529151 2.03564133 0 0 Z " fill="#055145" transform="translate(409,206)"/>
<path d="M0 0 C0.495 1.485 0.495 1.485 1 3 C-4.55543113 7.92413214 -4.55543113 7.92413214 -9 9 C-9.9075 9.721875 -10.815 10.44375 -11.75 11.1875 C-15.59298893 14.06974169 -19.78598926 15.64720308 -24.25 17.3125 C-25.31492676 17.71214966 -25.31492676 17.71214966 -26.40136719 18.11987305 C-29.39298137 19.20381702 -31.79423565 20 -35 20 C-35 20.66 -35 21.32 -35 22 C-36.32 21.67 -37.64 21.34 -39 21 C-36.43964079 19.53779721 -33.8768644 18.08014847 -31.3125 16.625 C-30.59126953 16.2125 -29.87003906 15.8 -29.12695312 15.375 C-25.47370063 13.30649174 -21.90156699 11.5606268 -18 10 C-17.13375 9.01 -17.13375 9.01 -16.25 8 C-12.94132243 5.05895327 -9.28482377 4.69582608 -5 4 C-5 3.34 -5 2.68 -5 2 C-3.35 1.34 -1.7 0.68 0 0 Z " fill="#13C09D" transform="translate(199,277)"/>
<path d="M0 0 C1.47906892 -0.02689216 2.95827483 -0.04634621 4.4375 -0.0625 C5.26121094 -0.07410156 6.08492187 -0.08570313 6.93359375 -0.09765625 C9 0 9 0 10 1 C11.34747084 1.23075082 12.70377565 1.41153063 14.0625 1.5625 C15.361875 1.706875 16.66125 1.85125 18 2 C18 2.66 18 3.32 18 4 C19.25296875 4.19335938 20.5059375 4.38671875 21.796875 4.5859375 C23.4479718 4.84861199 25.09901049 5.11165198 26.75 5.375 C27.575 5.50132812 28.4 5.62765625 29.25 5.7578125 C30.04921875 5.88671875 30.8484375 6.015625 31.671875 6.1484375 C32.4050293 6.26364746 33.13818359 6.37885742 33.89355469 6.49755859 C36.15881039 7.03788036 37.94110659 7.92652401 40 9 C42.07158792 9.58498208 44.15642808 10.12436324 46.25 10.625 C47.86648437 11.01558594 47.86648437 11.01558594 49.515625 11.4140625 C50.33546875 11.60742188 51.1553125 11.80078125 52 12 C52 12.33 52 12.66 52 13 C44.95405033 13.39716209 39.55856779 12.5168039 33 10 C28.55465769 8.54671501 24.243086 7.71610382 19.625 7.0625 C12.63155303 6.03239504 5.39676628 4.92748225 0 0 Z " fill="#002521" transform="translate(168,349)"/>
<path d="M0 0 C5.25369082 0.04758778 9.95977644 1.85412523 14.5625 4.3125 C14.8925 4.9725 15.2225 5.6325 15.5625 6.3125 C17.20613134 7.03409424 18.87300386 7.70601421 20.5625 8.3125 C19.5725 8.8075 19.5725 8.8075 18.5625 9.3125 C15.78642165 8.38714055 13.38659533 7.21086056 10.8515625 5.74609375 C7.02789501 4.07948333 4.33625683 4.00758235 0.1875 4.125 C-1.05773437 4.15207031 -2.30296875 4.17914063 -3.5859375 4.20703125 C-4.52695313 4.24183594 -5.46796875 4.27664062 -6.4375 4.3125 C-6.34989411 6.37576977 -6.24170727 8.4381716 -6.125 10.5 C-6.06699219 11.64855469 -6.00898438 12.79710937 -5.94921875 13.98046875 C-5.41060408 17.48763142 -4.35232691 19.37914813 -2.4375 22.3125 C-2.25 25.125 -2.25 25.125 -2.4375 27.3125 C-1.7775 27.3125 -1.1175 27.3125 -0.4375 27.3125 C0.2225 29.2925 0.8825 31.2725 1.5625 33.3125 C0.9025 33.3125 0.2425 33.3125 -0.4375 33.3125 C-1.75287364 30.87651192 -3.06489143 28.4388175 -4.375 26 C-4.74818359 25.30970703 -5.12136719 24.61941406 -5.50585938 23.90820312 C-5.86357422 23.24111328 -6.22128906 22.57402344 -6.58984375 21.88671875 C-6.91976318 21.27401123 -7.24968262 20.66130371 -7.58959961 20.0300293 C-9.78137796 15.59030552 -10.22983648 11.16875582 -9.4375 6.3125 C-7 3.3125 -7 3.3125 -4.4375 1.3125 C-3.4375 0.3125 -3.4375 0.3125 0 0 Z " fill="#60A297" transform="translate(205.4375,144.6875)"/>
<path d="M0 0 C2.86438486 3.31450248 3.93397256 6.50014762 5.125 10.6875 C5.98486958 14.64874612 5.98486958 14.64874612 8 18 C8.46728582 20.30666566 8.89821227 22.62072893 9.3125 24.9375 C10.36634483 30.63002302 11.82250739 35.69286875 14.328125 40.94921875 C15.12206347 43.37257744 14.83534513 44.62783403 14 47 C10.52123777 43.98746363 9.31414464 41.71976684 8.3125 37.25 C8.07273438 36.18910156 7.83296875 35.12820313 7.5859375 34.03515625 C7.11212373 31.5808009 6.71916621 29.16907641 6.4375 26.6875 C5.98741052 22.8938887 5.13560637 19.63394037 4 16 C3.34 16 2.68 16 2 16 C1.93941406 15.26394531 1.87882813 14.52789062 1.81640625 13.76953125 C1.73261719 12.79371094 1.64882812 11.81789063 1.5625 10.8125 C1.48128906 9.84957031 1.40007812 8.88664062 1.31640625 7.89453125 C1.02333849 5.21350398 0.57296246 2.6337014 0 0 Z " fill="#013F33" transform="translate(239,388)"/>
<path d="M0 0 C0.66 0.33 1.32 0.66 2 1 C2.484375 3.3984375 2.484375 3.3984375 2.75 6.375 C2.89695312 7.84066406 2.89695312 7.84066406 3.046875 9.3359375 C3 12 3 12 1 15 C0.01 15 -0.98 15 -2 15 C-2 15.66 -2 16.32 -2 17 C-2.66 17 -3.32 17 -4 17 C-4.33 17.66 -4.66 18.32 -5 19 C-7.62581138 20.57548683 -8.87099787 21 -12 21 C-15.20405699 22.71539544 -15.20405699 22.71539544 -18 25 C-19.51469448 25.23192865 -21.03754562 25.41215238 -22.5625 25.5625 C-23.80193359 25.68818359 -23.80193359 25.68818359 -25.06640625 25.81640625 C-25.70449219 25.87699219 -26.34257812 25.93757813 -27 26 C-24.88118193 21.76236387 -19.17379566 19.99275068 -14.875 18.5 C-11.30974252 17.24288609 -8.90776909 15.43623897 -6 13 C-3.1875 11.75 -3.1875 11.75 -1 11 C-0.83197949 9.54182203 -0.66562857 8.0834516 -0.5 6.625 C-0.36078125 5.40683594 -0.36078125 5.40683594 -0.21875 4.1640625 C0.03352351 2.03087175 0.03352351 2.03087175 0 0 Z " fill="#2D5651" transform="translate(301,189)"/>
<path d="M0 0 C0.66 1.32 1.32 2.64 2 4 C2.66 4 3.32 4 4 4 C4.19335938 4.81984375 4.38671875 5.6396875 4.5859375 6.484375 C4.84632813 7.56203125 5.10671875 8.6396875 5.375 9.75 C5.63023437 10.81734375 5.88546875 11.8846875 6.1484375 12.984375 C6.88076626 15.57775943 7.77306863 17.62659177 9 20 C9.47146135 22.02054865 9.93606959 24.04303555 10.359375 26.07421875 C11.20233297 29.92406949 12.16248046 33.74105323 13.125 37.5625 C13.30788574 38.28985352 13.49077148 39.01720703 13.67919922 39.76660156 C14.11849406 41.51131276 14.5591074 43.25569188 15 45 C11.76044309 43.38022154 11.28936648 39.93618972 10.125 36.6875 C9.86033936 35.9641748 9.59567871 35.24084961 9.32299805 34.49560547 C7.09617102 28.36929373 4.98446366 22.20916631 3 16 C2.54947266 14.63875 2.54947266 14.63875 2.08984375 13.25 C0.63346317 8.69796395 -0.38239344 4.84365021 0 0 Z " fill="#14C19E" transform="translate(247,407)"/>
<path d="M0 0 C1 2 1 2 0.2578125 4.3125 C-0.11601562 5.199375 -0.48984375 6.08625 -0.875 7 C-1.42800781 8.3303125 -1.42800781 8.3303125 -1.9921875 9.6875 C-2.62568982 11.14111773 -3.29086959 12.58173918 -4 14 C-3.34 14.33 -2.68 14.66 -2 15 C-3.375 17.5 -3.375 17.5 -5 20 C-5.66 20 -6.32 20 -7 20 C-7.33 21.65 -7.66 23.3 -8 25 C-8.99 25 -9.98 25 -11 25 C-11.12375 26.0725 -11.2475 27.145 -11.375 28.25 C-12.0303533 32.18211977 -12.61453722 34.67226483 -15.5 37.4375 C-17.39903312 39.4156595 -18.09899031 41.43558782 -19 44 C-19.99928333 41.301935 -20.03624754 40.11989571 -19.1875 37.3125 C-18 35 -18 35 -16 34 C-15.15258932 31.44445783 -14.52828074 28.86234081 -13.87890625 26.25 C-13.44384766 25.13625 -13.44384766 25.13625 -13 24 C-12.01 23.67 -11.02 23.34 -10 23 C-10 21.68 -10 20.36 -10 19 C-9.34 19 -8.68 19 -8 19 C-7.7834375 17.63875 -7.7834375 17.63875 -7.5625 16.25 C-6.64 10.92 -6.64 10.92 -6 9 C-5.34 8.67 -4.68 8.34 -4 8 C-2.87775145 6.11986894 -2.87775145 6.11986894 -1.875 3.9375 C-1.52179688 3.20402344 -1.16859375 2.47054688 -0.8046875 1.71484375 C-0.53914063 1.14894531 -0.27359375 0.58304687 0 0 Z " fill="#013D32" transform="translate(323,385)"/>
<path d="M0 0 C0.33 0 0.66 0 1 0 C1.19491883 4.19075475 0.93330576 7.24079436 -1 11 C-1.99 11.495 -1.99 11.495 -3 12 C-3.85580402 14.75111869 -4.47309622 17.5291825 -5.12109375 20.3359375 C-6.03316672 23.10053201 -6.83838687 24.13908371 -9 26 C-11.91705625 30.50817784 -14.40851989 35.29846098 -17 40 C-17.33 40 -17.66 40 -18 40 C-18.3534418 35.66444729 -17.34401968 33.23586864 -15.1875 29.5 C-14.66542969 28.5821875 -14.14335937 27.664375 -13.60546875 26.71875 C-12.56219847 24.95204412 -11.50058231 23.19599918 -10.41796875 21.453125 C-9.04981665 19.08618417 -8.07051569 16.81042302 -7.125 14.25 C-5.17992248 9.22898593 -2.73057775 4.63302947 0 0 Z " fill="#035347" transform="translate(364,298)"/>
<path d="M0 0 C5.24210526 -0.43684211 5.24210526 -0.43684211 8 0 C10.5 2.375 10.5 2.375 12 5 C12 5.66 12 6.32 12 7 C13.32 7 14.64 7 16 7 C16.144375 8.0725 16.28875 9.145 16.4375 10.25 C16.84343853 13.73067158 16.84343853 13.73067158 17.6484375 15.8828125 C18.14466414 18.87119957 17.25883135 20.81606763 16.1875 23.625 C15.83042969 24.58664063 15.47335937 25.54828125 15.10546875 26.5390625 C14 29 14 29 12 31 C12.165 30.2575 12.33 29.515 12.5 28.75 C13.81893043 18.9273189 13.81893043 18.9273189 11.375 9.5625 C7.90314058 5.81654642 4.26277315 2.84184877 0 0 Z " fill="#024239" transform="translate(398,175)"/>
<path d="M0 0 C1.46726798 3.81489674 0.43336419 6.29011622 -1 10 C-1.66 10 -2.32 10 -3 10 C-3 11.32 -3 12.64 -3 14 C-3.99 14.495 -3.99 14.495 -5 15 C-5.84741068 17.55554217 -6.47171926 20.13765919 -7.12109375 22.75 C-7.41113281 23.4925 -7.70117188 24.235 -8 25 C-8.99 25.33 -9.98 25.66 -11 26 C-11.69885767 27.906359 -11.69885767 27.906359 -12 30.1875 C-12.77948852 34.24467386 -14.02024503 37.34506775 -16 41 C-17.3649429 43.98612056 -18.68330823 46.99232844 -20 50 C-20.97208211 46.93268685 -21.12387212 46.27871227 -19.75 43.1875 C-19.1725 42.135625 -18.595 41.08375 -18 40 C-16.27554763 36.35212 -15.05273116 33.38230092 -14.5 29.375 C-13.97722756 25.84628606 -13.14236801 23.82792578 -11 21 C-10.34 21 -9.68 21 -9 21 C-9 19.68 -9 18.36 -9 17 C-8.34 17 -7.68 17 -7 17 C-6.87625 16.236875 -6.7525 15.47375 -6.625 14.6875 C-6 12 -6 12 -4 9 C-3.34 9 -2.68 9 -2 9 C-2.04125 8.071875 -2.0825 7.14375 -2.125 6.1875 C-2 3 -2 3 0 0 Z " fill="#14B494" transform="translate(316,394)"/>
<path d="M0 0 C0 0.66 0 1.32 0 2 C-0.66386719 2.23074219 -1.32773438 2.46148437 -2.01171875 2.69921875 C-8.43721376 5.07243078 -13.05665595 7.20585209 -16.3125 13.5625 C-17.32764381 18.63821907 -17.71602551 23.85693507 -17 29 C-16.01 29.66 -15.02 30.32 -14 31 C-13.29788106 32.65204456 -12.63028587 34.31923769 -12 36 C-9.64046906 38.35953094 -8.22104383 38.49141413 -5 39 C-5 39.33 -5 39.66 -5 40 C-8.89756645 40.4532054 -10.48421401 40.40526042 -13.625 37.9375 C-19.18622965 31.05913701 -20.68949183 26.95802858 -20.3828125 18.0234375 C-19.87643476 14.02408677 -18.73480058 11.95070589 -16 9 C-15.56429687 8.47921875 -15.12859375 7.9584375 -14.6796875 7.421875 C-10.84686323 3.10732965 -5.99285755 0 0 0 Z " fill="#0E977A" transform="translate(154,302)"/>
<path d="M0 0 C-1 3 -1 3 -2.8984375 3.95703125 C-3.71570313 4.23933594 -4.53296875 4.52164063 -5.375 4.8125 C-10.40450468 6.66699455 -14.85989727 9.0847836 -19.45703125 11.828125 C-22.20911928 13.09636833 -24.00789318 13.23636032 -27 13 C-27 13.66 -27 14.32 -27 15 C-27.66 15 -28.32 15 -29 15 C-29.33 15.99 -29.66 16.98 -30 18 C-32.31 18.33 -34.62 18.66 -37 19 C-32.2993632 13.93777575 -27.32239906 10.97971735 -20.8828125 8.71484375 C-18.38268958 7.76562696 -16.23941508 6.45259357 -14 5 C-9.25479027 2.03424392 -5.686194 0 0 0 Z " fill="#0E957C" transform="translate(353,196)"/>
<path d="M0 0 C0.66 0.33 1.32 0.66 2 1 C-0.18658327 4.2798749 -1.4738014 4.99379716 -4.9375 6.6875 C-5.81277344 7.12449219 -6.68804687 7.56148437 -7.58984375 8.01171875 C-10 9 -10 9 -13 9 C-13.33 9.99 -13.66 10.98 -14 12 C-17.28305377 13.58072959 -20.54536928 14.84845643 -24 16 C-23.875 13.6875 -23.875 13.6875 -23 11 C-20.25 9.375 -20.25 9.375 -17 8 C-15.85337891 7.30003906 -15.85337891 7.30003906 -14.68359375 6.5859375 C-11.80030202 4.88198344 -8.89689929 3.55272765 -5.8125 2.25 C-4.76707031 1.80140625 -3.72164063 1.3528125 -2.64453125 0.890625 C-1.77183594 0.59671875 -0.89914062 0.3028125 0 0 Z " fill="#075C4F" transform="translate(316,212)"/>
<path d="M0 0 C0 0.99 0 1.98 0 3 C-1.32 3 -2.64 3 -4 3 C-4.0928125 3.8971875 -4.0928125 3.8971875 -4.1875 4.8125 C-5.32800995 7.88310372 -7.17812585 8.48582363 -10 10 C-10.66 10.66 -11.32 11.32 -12 12 C-14.27734375 12.4140625 -14.27734375 12.4140625 -16.9375 12.625 C-17.81277344 12.69976562 -18.68804687 12.77453125 -19.58984375 12.8515625 C-21.390496 12.96246167 -23.19593594 13 -25 13 C-23.5957519 10.19150381 -21.89192299 10.11733388 -19 9 C-18.13375 8.46375 -17.2675 7.9275 -16.375 7.375 C-14 6 -14 6 -11 6 C-10.67 5.01 -10.34 4.02 -10 3 C-8.22265625 2.05078125 -8.22265625 2.05078125 -6.0625 1.3125 C-5.35222656 1.06113281 -4.64195312 0.80976563 -3.91015625 0.55078125 C-2 0 -2 0 0 0 Z " fill="#214945" transform="translate(270,216)"/>
<path d="M0 0 C0.66 0.33 1.32 0.66 2 1 C0.32255687 7.78334457 -2.21035893 13.46037631 -5.6328125 19.5390625 C-9.0918218 25.76527925 -9.12631809 30.15076839 -8 37 C-8.66 37 -9.32 37 -10 37 C-10 36.01 -10 35.02 -10 34 C-10.66 34 -11.32 34 -12 34 C-12.04254356 32.00045254 -12.04080783 29.99958364 -12 28 C-11.67 27.67 -11.34 27.34 -11 27 C-10.84289112 25.56565414 -10.72395279 24.12702756 -10.625 22.6875 C-10.25244619 18.89586366 -9.6365586 16.85627182 -7 14 C-6.67 13.01 -6.34 12.02 -6 11 C-5.01 11 -4.02 11 -3 11 C-3.33 9.02 -3.66 7.04 -4 5 C-3.34 5 -2.68 5 -2 5 C-2 4.34 -2 3.68 -2 3 C-1.34 3 -0.68 3 0 3 C0 2.01 0 1.02 0 0 Z " fill="#264C49" transform="translate(375,318)"/>
<path d="M0 0 C0.66 0.33 1.32 0.66 2 1 C0.58671871 1.81837442 -0.83078346 2.62946219 -2.25 3.4375 C-3.03890625 3.88996094 -3.8278125 4.34242188 -4.640625 4.80859375 C-6.78833468 5.89311602 -8.65205061 6.53148716 -11 7 C-11 7.66 -11 8.32 -11 9 C-12.4540625 9.680625 -12.4540625 9.680625 -13.9375 10.375 C-17.07079582 11.65786221 -17.07079582 11.65786221 -18 14 C-19.85546875 14.67578125 -19.85546875 14.67578125 -22.1875 15.3125 C-25.48533942 16.32481147 -27.67517802 17.32217558 -30.1875 19.6875 C-33 22 -33 22 -36.375 22.3125 C-37.24125 22.209375 -38.1075 22.10625 -39 22 C-36.92158744 17.84317488 -30.99621539 16.08231913 -27 14 C-26.08347656 13.5153125 -25.16695312 13.030625 -24.22265625 12.53125 C-20.11256356 10.40512687 -16.59977001 8.7557926 -12 8 C-12 7.34 -12 6.68 -12 6 C-10.04669132 4.96958487 -8.08718472 3.9509107 -6.125 2.9375 C-4.48917969 2.08478516 -4.48917969 2.08478516 -2.8203125 1.21484375 C-1.88960937 0.81394531 -0.95890625 0.41304687 0 0 Z " fill="#109F84" transform="translate(247,251)"/>
<path d="M0 0 C2.33294775 -0.04241723 4.66702567 -0.04092937 7 0 C7.33 0.33 7.66 0.66 8 1 C10.32817964 1.36760731 12.6618385 1.70241581 15 2 C15 2.66 15 3.32 15 4 C15.99 4 16.98 4 18 4 C18 4.99 18 5.98 18 7 C18.70125 6.896875 19.4025 6.79375 20.125 6.6875 C24.30732311 7.14210034 25.95201113 9.16466151 29 12 C28.01 12.495 28.01 12.495 27 13 C24.9911515 12.01789629 22.99212671 11.01559401 21 10 C18.26427415 9.30092586 18.26427415 9.30092586 16 9 C16 8.34 16 7.68 16 7 C15.29875 7.0825 14.5975 7.165 13.875 7.25 C10.04809869 6.91722597 8.1048043 5.19923638 5 3 C3.35380887 2.28426473 1.69271945 1.5974304 0 1 C0 0.67 0 0.34 0 0 Z " fill="#3D7169" transform="translate(246,163)"/>
<path d="M0 0 C0.99 0.33 1.98 0.66 3 1 C0 3 0 3 -4 3 C-4 3.66 -4 4.32 -4 5 C-5.58074564 5.81752303 -7.16471223 6.62881997 -8.75 7.4375 C-9.63171875 7.88996094 -10.5134375 8.34242188 -11.421875 8.80859375 C-13.64198566 9.83455398 -15.61444619 10.51508603 -18 11 C-18 11.66 -18 12.32 -18 13 C-23 15 -28 17 -33 19 C-33 18.34 -33 17.68 -33 17 C-32.01 17 -31.02 17 -30 17 C-30 16.34 -30 15.68 -30 15 C-29.01 15 -28.02 15 -27 15 C-27 14.34 -27 13.68 -27 13 C-24.29120665 11.64560332 -21.99066732 11.93498549 -19 12 C-19 11.34 -19 10.68 -19 10 C-18.360625 9.71125 -17.72125 9.4225 -17.0625 9.125 C-14.84793921 8.17176549 -14.84793921 8.17176549 -14 6 C-12.68 6 -11.36 6 -10 6 C-9.814375 5.360625 -9.62875 4.72125 -9.4375 4.0625 C-8 2 -8 2 -4.4375 1.3125 C-2.7359375 1.1578125 -2.7359375 1.1578125 -1 1 C-0.67 0.67 -0.34 0.34 0 0 Z " fill="#02473B" transform="translate(253,246)"/>
<path d="M0 0 C-0.763125 0.4125 -1.52625 0.825 -2.3125 1.25 C-5.04549669 2.7901298 -5.04549669 2.7901298 -6.4375 5.0625 C-8.57499213 7.71299024 -10.7894608 8.01718188 -14 9 C-14.99 9.7734375 -14.99 9.7734375 -16 10.5625 C-18.58758486 12.42232662 -20.87283125 12.64463991 -24 13 C-23.67 12.01 -23.34 11.02 -23 10 C-22.01 10 -21.02 10 -20 10 C-20 9.34 -20 8.68 -20 8 C-13.5 4 -13.5 4 -9 4 C-8.67 2.68 -8.34 1.36 -8 0 C-4.94736336 -0.98120464 -3.05263664 -0.98120464 0 0 Z " fill="#034B40" transform="translate(280,233)"/>
<path d="M0 0 C2.31 0.33 4.62 0.66 7 1 C7 1.66 7 2.32 7 3 C8.98 3.66 10.96 4.32 13 5 C13 5.66 13 6.32 13 7 C16.3 7.99 19.6 8.98 23 10 C23 10.33 23 10.66 23 11 C21.58566794 11.2236337 20.16832382 11.42826476 18.75 11.625 C17.96109375 11.74101562 17.1721875 11.85703125 16.359375 11.9765625 C13.67847541 12.00319395 12.27305911 11.36592084 10 10 C10 9.34 10 8.68 10 8 C9.01 7.67 8.02 7.34 7 7 C7 6.34 7 5.68 7 5 C6.01 4.67 5.02 4.34 4 4 C4 3.34 4 2.68 4 2 C2.68 1.67 1.36 1.34 0 1 C0 0.67 0 0.34 0 0 Z " fill="#122F2C" transform="translate(387,364)"/>
<path d="M0 0 C3.09152119 0.44164588 5.91998769 0.97216963 8.875 2 C11.47841711 2.83309348 13.62619213 3.26082906 16.3125 3.5625 C20 4 20 4 21 5 C22.37024654 5.18524792 23.7470321 5.3230586 25.125 5.4375 C30.37822129 5.96449513 34.99408453 7.33136151 40 9 C40 9.66 40 10.32 40 11 C41.32 11.66 42.64 12.32 44 13 C38.25 12.125 38.25 12.125 36 11 C36 10.34 36 9.68 36 9 C34.700625 9.020625 33.40125 9.04125 32.0625 9.0625 C30.70834367 9.08399454 29.35243917 9.07148199 28 9 C27.67 8.67 27.34 8.34 27 8 C25.50503158 7.79300437 24.0033408 7.63320741 22.5 7.5 C18.11111111 7.11111111 18.11111111 7.11111111 17 6 C15.64836973 5.8669073 14.29322627 5.76889008 12.9375 5.6875 C7.88658909 5.20183549 4.3960321 3.47776355 0 1 C0 0.67 0 0.34 0 0 Z " fill="#11AD8D" transform="translate(150,342)"/>
<path d="M0 0 C2.5625 1.625 2.5625 1.625 3.5625 3.625 C2.2425 3.625 0.9225 3.625 -0.4375 3.625 C-0.4375 2.965 -0.4375 2.305 -0.4375 1.625 C-7.00614678 1.30942444 -11.61839576 1.26285088 -17.4375 4.625 C-18.84445489 5.01596856 -20.26242781 5.36883448 -21.6875 5.6875 C-25.43928644 6.28378927 -25.43928644 6.28378927 -27.4375 8.625 C-29.5625 8.25 -29.5625 8.25 -31.4375 7.625 C-30.1175 7.295 -28.7975 6.965 -27.4375 6.625 C-27.4375 5.965 -27.4375 5.305 -27.4375 4.625 C-24.94330686 3.60795037 -22.44375963 2.61150645 -19.9375 1.625 C-19.24140625 1.33882812 -18.5453125 1.05265625 -17.828125 0.7578125 C-11.63638419 -1.6500867 -6.3700083 -2.54800332 0 0 Z " fill="#119B7E" transform="translate(401.4375,176.375)"/>
<path d="M0 0 C0.99 0.495 0.99 0.495 2 1 C2 1.66 2 2.32 2 3 C2.66 3 3.32 3 4 3 C4.12375 3.639375 4.2475 4.27875 4.375 4.9375 C4.684375 5.9584375 4.684375 5.9584375 5 7 C5.66 7.33 6.32 7.66 7 8 C7 9.32 7 10.64 7 12 C7.66 12 8.32 12 9 12 C9 13.98 9 15.96 9 18 C9.66 18 10.32 18 11 18 C11.33 18.99 11.66 19.98 12 21 C12.66 21.33 13.32 21.66 14 22 C14.33333333 23.33333333 14.66666667 24.66666667 15 26 C15.66 26.33 16.32 26.66 17 27 C17.40729228 29.32156597 17.74438677 31.6568787 18 34 C15 32 15 32 14 28.4375 C13.67 27.303125 13.34 26.16875 13 25 C12.01 24.67 11.02 24.34 10 24 C8.7890625 21.375 8.7890625 21.375 7.625 18 C5.7836022 12.91236901 3.70880308 8.33552264 0.91796875 3.70703125 C0 2 0 2 0 0 Z " fill="#32615C" transform="translate(409,293)"/>
<path d="M0 0 C0 3.38023517 -0.87455622 5.83468937 -2 9 C-2.66 9 -3.32 9 -4 9 C-4.12117188 9.71027344 -4.24234375 10.42054688 -4.3671875 11.15234375 C-4.53476562 12.07144531 -4.70234375 12.99054688 -4.875 13.9375 C-5.03742188 14.85402344 -5.19984375 15.77054687 -5.3671875 16.71484375 C-5.57601563 17.46894531 -5.78484375 18.22304688 -6 19 C-6.66 19.33 -7.32 19.66 -8 20 C-8.66 20.99 -9.32 21.98 -10 23 C-10 22.01 -10 21.02 -10 20 C-10.66 19.67 -11.32 19.34 -12 19 C-11.01 19 -10.02 19 -9 19 C-8.95101563 18.40832031 -8.90203125 17.81664062 -8.8515625 17.20703125 C-8.03966006 8.62606232 -8.03966006 8.62606232 -6 5 C-5.01 4.67 -4.02 4.34 -3 4 C-2.67 3.01 -2.34 2.02 -2 1 C-1.34 0.67 -0.68 0.34 0 0 Z " fill="#204440" transform="translate(387,295)"/>
<path d="M0 0 C2.62696231 0.44879766 5.25116893 0.90854114 7.875 1.375 C8.99455078 1.56449219 8.99455078 1.56449219 10.13671875 1.7578125 C15.7734375 2.7734375 15.7734375 2.7734375 18 5 C20.38519342 5.65054898 20.38519342 5.65054898 23.125 6.0625 C24.59259766 6.30806641 24.59259766 6.30806641 26.08984375 6.55859375 C29.72149223 7.10943439 33.35014724 7.58680912 37 8 C37 8.66 37 9.32 37 10 C30.84765625 10.09765625 30.84765625 10.09765625 29 10 C28.67 9.67 28.34 9.34 28 9 C26.17251936 8.67366417 24.33745203 8.38948173 22.5 8.125 C17.06777955 7.26048986 12.15033425 5.88302734 7 4 C5.845 3.649375 4.69 3.29875 3.5 2.9375 C1 2 1 2 0 0 Z " fill="#14CAA2" transform="translate(142,338)"/>
<path d="M0 0 C0.66 0.33 1.32 0.66 2 1 C0.71186658 1.83878455 -0.58063256 2.67086783 -1.875 3.5 C-2.59429687 3.9640625 -3.31359375 4.428125 -4.0546875 4.90625 C-6 6 -6 6 -8 6 C-8 6.66 -8 7.32 -8 8 C-8.95261719 8.31453125 -9.90523437 8.6290625 -10.88671875 8.953125 C-12.15382851 9.38488092 -13.42074553 9.81720277 -14.6875 10.25 C-15.92886719 10.66765625 -17.17023438 11.0853125 -18.44921875 11.515625 C-21.88935896 12.95374742 -24.23760292 14.52810357 -27 17 C-26.67 15.68 -26.34 14.36 -26 13 C-25.34 13 -24.68 13 -24 13 C-23.67 12.01 -23.34 11.02 -23 10 C-21.02 9.67 -19.04 9.34 -17 9 C-17 8.34 -17 7.68 -17 7 C-15.906875 6.896875 -14.81375 6.79375 -13.6875 6.6875 C-9.77949976 5.95888979 -9.48867355 5.69606301 -7 3 C-3.4375 1.25 -3.4375 1.25 0 0 Z " fill="#002D24" transform="translate(166,293)"/>
<path d="M0 0 C1.07665938 3.90289026 1.33119269 7.12743946 0 11 C-0.515625 11.433125 -1.03125 11.86625 -1.5625 12.3125 C-3.32986279 14.08281874 -3.32986279 14.08281874 -3.5 17.5 C-3.335 18.655 -3.17 19.81 -3 21 C-0.59141286 22.8624438 -0.59141286 22.8624438 2 24 C2 24.66 2 25.32 2 26 C-1.01990039 25.10219178 -2.73870172 24.2874281 -4.875 21.9375 C-6.87005047 16.72820155 -5.9596833 12.25918888 -3.80859375 7.1953125 C-2.59723366 4.75878764 -1.33972877 2.36800768 0 0 Z " fill="#77C2B5" transform="translate(371,332)"/>
<path d="M0 0 C0 0.66 0 1.32 0 2 C1.1446875 2.0928125 1.1446875 2.0928125 2.3125 2.1875 C5 3 5 3 6.875 5.4375 C7.24625 6.283125 7.6175 7.12875 8 8 C7.67 8.66 7.34 9.32 7 10 C5 8.1875 5 8.1875 3 6 C3 5.01 3 4.02 3 3 C1.39482903 3.08733576 -0.20921662 3.19552224 -1.8125 3.3125 C-2.70582031 3.37050781 -3.59914063 3.42851562 -4.51953125 3.48828125 C-7.34972352 4.07214769 -8.24188857 4.75840792 -10 7 C-11.17574711 9.09989652 -11.17574711 9.09989652 -12 11 C-12.33 10.34 -12.66 9.68 -13 9 C-12.06553465 6.96855359 -11.06775224 4.96466413 -10 3 C-10.66 2.67 -11.32 2.34 -12 2 C-7.8794254 0.00214565 -4.54805635 -0.17835515 0 0 Z " fill="#264645" transform="translate(401,283)"/>
<path d="M0 0 C3.04376178 2.02917452 3.74810874 2.72582285 5 6 C5 7.32 5 8.64 5 10 C5.66 10 6.32 10 7 10 C7.89542658 18.5397165 7.89542658 18.5397165 5.91015625 21.77734375 C3.04355745 24.40062382 0.96429057 25.00287979 -2.875 25.3125 C-3.90625 25.209375 -4.9375 25.10625 -6 25 C-6 24.67 -6 24.34 -6 24 C-4.02 24 -2.04 24 0 24 C0 23.01 0 22.02 0 21 C0.66128906 20.55398438 1.32257813 20.10796875 2.00390625 19.6484375 C4.27910212 18.15946079 4.27910212 18.15946079 4.27734375 15.4765625 C3.42714309 8.29847656 3.42714309 8.29847656 0 2 C0 1.34 0 0.68 0 0 Z " fill="#8DD4C7" transform="translate(444,363)"/>
<path d="M0 0 C1.58409994 0.11487748 3.16728963 0.24234508 4.75 0.375 C6.07257813 0.47941406 6.07257813 0.47941406 7.421875 0.5859375 C10.04631095 1.00743782 11.65757719 1.79329734 14 3 C16.07158792 3.58498208 18.15642808 4.12436324 20.25 4.625 C21.32765625 4.88539063 22.4053125 5.14578125 23.515625 5.4140625 C24.33546875 5.60742188 25.1553125 5.80078125 26 6 C26 6.33 26 6.66 26 7 C18.94048614 7.39792667 13.57452764 6.48667558 7 4 C4.67630573 3.2926023 2.34130552 2.64759514 0 2 C0 1.34 0 0.68 0 0 Z " fill="#066553" transform="translate(194,355)"/>
<path d="M0 0 C1.27194845 3.81584535 0.48462688 4.65344696 -1.25 8.1875 C-3.42043206 12.73392036 -5.30056475 17.2594701 -7 22 C-7.66 22 -8.32 22 -9 22 C-9.33 22.66 -9.66 23.32 -10 24 C-11.03040136 16.01438948 -4.94948196 7.5775759 -1 1 C-0.67 0.67 -0.34 0.34 0 0 Z " fill="#12BF99" transform="translate(401,216)"/>
<path d="M0 0 C0.66 0.33 1.32 0.66 2 1 C0.71034824 2.37562854 -0.62689293 3.70766393 -2 5 C-2.66 5 -3.32 5 -4 5 C-4 5.66 -4 6.32 -4 7 C-5.59766103 7.86627399 -7.20339944 8.71766465 -8.8125 9.5625 C-9.70582031 10.03816406 -10.59914063 10.51382813 -11.51953125 11.00390625 C-14 12 -14 12 -17 11 C-15.50260417 9.79557292 -14.00520833 8.59114583 -12.5078125 7.38671875 C-10.74707893 5.87729455 -10.74707893 5.87729455 -9 3 C-7.08984375 2.3046875 -7.08984375 2.3046875 -4.9375 1.875 C-2.19686221 1.45747638 -2.19686221 1.45747638 0 0 Z " fill="#062020" transform="translate(378,176)"/>
<path d="M0 0 C1.65 0 3.3 0 5 0 C1.41897774 3.76007337 -2.07219993 6.21083726 -6.9375 8.0625 C-8.18853516 8.54396484 -8.18853516 8.54396484 -9.46484375 9.03515625 C-10.30144531 9.35355469 -11.13804687 9.67195312 -12 10 C-13.66778102 10.663874 -15.33477532 11.32973962 -17 12 C-16.67 11.01 -16.34 10.02 -16 9 C-15.01 8.67 -14.02 8.34 -13 8 C-12.5875 7.54625 -12.175 7.0925 -11.75 6.625 C-8.46180271 3.57167395 -4.4545627 2 0 2 C0 1.34 0 0.68 0 0 Z " fill="#025143" transform="translate(355,190)"/>
<path d="M0 0 C0.66 0.33 1.32 0.66 2 1 C1.51660156 1.79470703 1.51660156 1.79470703 1.0234375 2.60546875 C-1.22423226 7.86432967 -1.09252073 15.07394447 0.8984375 20.40625 C2.06028925 22.50155385 2.06028925 22.50155385 4 25 C3.01 25 2.02 25 1 25 C0.34 23.35 -0.32 21.7 -1 20 C-1.66 20 -2.32 20 -3 20 C-3.08139142 17.60347472 -3.14067009 15.20974564 -3.1875 12.8125 C-3.22520508 11.80219727 -3.22520508 11.80219727 -3.26367188 10.77148438 C-3.32923478 6.29135252 -2.66743649 3.60559001 0 0 Z " fill="#0A4D41" transform="translate(135,312)"/>
<path d="M0 0 C5.80298322 0.26865663 10.07542068 1.25797951 15.1484375 4.09765625 C17.16026187 5.19901137 17.16026187 5.19901137 20.3125 5.4375 C23 6 23 6 24.9375 8.4375 C25.288125 9.283125 25.63875 10.12875 26 11 C25.67 11.66 25.34 12.32 25 13 C24.401875 12.443125 23.80375 11.88625 23.1875 11.3125 C16.26133233 6.28763326 8.11244224 3.52682627 0 1 C0 0.67 0 0.34 0 0 Z " fill="#2D5651" transform="translate(275,176)"/>
<path d="M0 0 C3.4108326 0.4060515 5.88357187 0.93807015 8.9375 2.5625 C12.58872418 4.27633992 15.00695151 4.36972671 19 4 C21.35369807 3.11935073 21.35369807 3.11935073 23 2 C22.125 5.875 22.125 5.875 21 7 C19.35659133 7.09854655 17.7088539 7.12972411 16.0625 7.125 C15.16660156 7.12757813 14.27070313 7.13015625 13.34765625 7.1328125 C11 7 11 7 9 6 C9 5.34 9 4.68 9 4 C8.2575 3.855625 7.515 3.71125 6.75 3.5625 C4.47972261 3.09812508 2.24240521 2.58136431 0 2 C0 1.34 0 0.68 0 0 Z " fill="#254A47" transform="translate(426,383)"/>
<path d="M0 0 C1.32 0 2.64 0 4 0 C4.37125 1.5159375 4.37125 1.5159375 4.75 3.0625 C5.46904323 5.98066083 6.24506175 8.87173257 7.05859375 11.765625 C7.24389648 12.43070068 7.42919922 13.09577637 7.62011719 13.78100586 C7.99545509 15.12488997 8.37751993 16.46691517 8.76660156 17.80688477 C9.67855314 21.0989623 10.10560272 22.68319185 9 26 C6.36599448 19.10141411 3.86758525 12.17676735 1.875 5.0625 C1.13501695 2.11646012 1.13501695 2.11646012 0 0 Z " fill="#12B08F" transform="translate(232,366)"/>
<path d="M0 0 C0.33 0.66 0.66 1.32 1 2 C0.41088867 3.70825195 0.41088867 3.70825195 -0.58203125 5.73828125 C-0.93716797 6.47626953 -1.29230469 7.21425781 -1.65820312 7.97460938 C-2.22958008 9.13186523 -2.22958008 9.13186523 -2.8125 10.3125 C-3.549437 11.8288154 -4.28514632 13.34572818 -5.01953125 14.86328125 C-5.36580566 15.57693848 -5.71208008 16.2905957 -6.06884766 17.02587891 C-7.14794968 19.31366574 -8.10724491 21.63349048 -9 24 C-9.33 24 -9.66 24 -10 24 C-10 21.69 -10 19.38 -10 17 C-9.34 17 -8.68 17 -8 17 C-7.896875 15.72125 -7.79375 14.4425 -7.6875 13.125 C-7.51171875 10.9453125 -7.51171875 10.9453125 -7 9 C-6.01 8.34 -5.02 7.68 -4 7 C-3.26656572 3.93443402 -3.26656572 3.93443402 -3 1 C-2.01 0.67 -1.02 0.34 0 0 Z " fill="#14C5A1" transform="translate(336,354)"/>
<path d="M0 0 C0.99 0 1.98 0 3 0 C3 1.65 3 3.3 3 5 C3.66 5 4.32 5 5 5 C5 6.32 5 7.64 5 9 C5.66 9 6.32 9 7 9 C7.33 10.98 7.66 12.96 8 15 C8.66 15 9.32 15 10 15 C10.50559908 16.43554025 11.0042749 17.8735202 11.5 19.3125 C11.7784375 20.11300781 12.056875 20.91351563 12.34375 21.73828125 C13 24 13 24 13 27 C10.11155184 22.82002106 7.65882136 18.6150514 5.375 14.0625 C4.78460938 12.89847656 4.19421875 11.73445313 3.5859375 10.53515625 C2.00599687 7.01336742 0.96104516 3.72523942 0 0 Z " fill="#2F5D57" transform="translate(430,334)"/>
<path d="M0 0 C0.33 1.32 0.66 2.64 1 4 C0.01 4.33 -0.98 4.66 -2 5 C-2.10441406 5.68191406 -2.20882813 6.36382812 -2.31640625 7.06640625 C-3.13552886 10.58161241 -4.47291305 13.63949369 -5.9375 16.9375 C-7.84585275 21.24653237 -9.57942945 25.50495792 -11 30 C-11.66 30 -12.32 30 -13 30 C-10.45004871 20.22518671 -6.24048093 11.14136463 -2 2 C-1.34 2 -0.68 2 0 2 C0 1.34 0 0.68 0 0 Z " fill="#11957C" transform="translate(392,238)"/>
<path d="M0 0 C0.5775 0.226875 1.155 0.45375 1.75 0.6875 C-0.25 3.6875 -0.25 3.6875 -2.4140625 4.41796875 C-3.63222656 4.64419922 -3.63222656 4.64419922 -4.875 4.875 C-6.10089844 5.11283203 -6.10089844 5.11283203 -7.3515625 5.35546875 C-8.29128906 5.51982422 -8.29128906 5.51982422 -9.25 5.6875 C-9.25 6.3475 -9.25 7.0075 -9.25 7.6875 C-10.70706726 8.19117757 -12.16570096 8.69032556 -13.625 9.1875 C-14.43710938 9.4659375 -15.24921875 9.744375 -16.0859375 10.03125 C-18.25 10.6875 -18.25 10.6875 -20.25 10.6875 C-20.25 10.0275 -20.25 9.3675 -20.25 8.6875 C-19.239375 8.254375 -18.22875 7.82125 -17.1875 7.375 C-16.55070313 7.10042969 -15.91390625 6.82585937 -15.2578125 6.54296875 C-13.36781884 5.73769908 -11.46547584 4.96159187 -9.5625 4.1875 C-6.29792568 2.87349863 -6.29792568 2.87349863 -4.0625 0.9375 C-2.25 -0.3125 -2.25 -0.3125 0 0 Z " fill="#16C29F" transform="translate(269.25,240.3125)"/>
<path d="M0 0 C0 2 0 2 -1.43359375 3.65625 C-6.37023585 8.19834566 -10.32038268 10.24235822 -17 11 C-15.66666667 9.66666667 -14.33333333 8.33333333 -13 7 C-12.401875 6.319375 -11.80375 5.63875 -11.1875 4.9375 C-8.09152687 2.19535237 -4.24594821 0 0 0 Z " fill="#12C69E" transform="translate(370,185)"/>
<path d="M0 0 C1 2 1 2 0.75 5.125 C1.04212061 9.65286945 2.38123854 11.50515947 4.88671875 15.1328125 C6.30233601 17.50707584 6.42375486 19.28796888 6 22 C6.66 22 7.32 22 8 22 C8.66 23.98 9.32 25.96 10 28 C9.34 28 8.68 28 8 28 C6.68462636 25.56401192 5.37260857 23.1263175 4.0625 20.6875 C3.68931641 19.99720703 3.31613281 19.30691406 2.93164062 18.59570312 C2.57392578 17.92861328 2.21621094 17.26152344 1.84765625 16.57421875 C1.3527771 15.65515747 1.3527771 15.65515747 0.84790039 14.7175293 C-0.73637339 11.50838272 -1.13647744 8.89857465 -1.125 5.375 C-1.12757813 4.57835937 -1.13015625 3.78171875 -1.1328125 2.9609375 C-1 1 -1 1 0 0 Z " fill="#31625B" transform="translate(197,150)"/>
<path d="M0 0 C0.33 0 0.66 0 1 0 C1.125 5.75 1.125 5.75 0 8 C-0.66 8 -1.32 8 -2 8 C-3.08999896 11.19213981 -4.10271258 14.37233309 -5 17.625 C-5.79874447 20.32076257 -6.63529617 22.56302887 -8 25 C-8.66 25 -9.32 25 -10 25 C-8.04501554 15.87673918 -4.35038852 8.16442777 0 0 Z " fill="#035649" transform="translate(334,360)"/>
<path d="M0 0 C3.75547946 -0.35766471 5.81449989 -0.08918275 9.25 1.5625 C12.67739891 4.60042176 13.10986226 6.54931129 14 11 C14.36826912 12.48085681 14.74322123 13.96006845 15.125 15.4375 C15.41375 16.613125 15.7025 17.78875 16 19 C13.23192309 17.61596155 13.08294379 16.10964845 12 13.25 C11.67 12.38890625 11.34 11.5278125 11 10.640625 C10.31986694 8.84464864 9.6751564 7.0349438 9.0625 5.21484375 C8.711875 4.48394531 8.36125 3.75304687 8 3 C5.02019764 2.25335353 5.02019764 2.25335353 2 2 C1.34 1.34 0.68 0.68 0 0 Z " fill="#015341" transform="translate(222,364)"/>
<path d="M0 0 C0 7.79351609 -4.04318851 15.15952295 -9 21 C-9.66 21 -10.32 21 -11 21 C-10.625 19.0625 -10.625 19.0625 -10 17 C-9.34 16.67 -8.68 16.34 -8 16 C-7.23516702 14.08566722 -7.23516702 14.08566722 -6.625 11.8125 C-5.20860512 7.28148169 -3.41209113 3.41209113 0 0 Z " fill="#80CDC0" transform="translate(393,287)"/>
<path d="M0 0 C0.66 0 1.32 0 2 0 C1.67 1.98 1.34 3.96 1 6 C0.34 6 -0.32 6 -1 6 C-1.12375 7.0725 -1.2475 8.145 -1.375 9.25 C-2.0303533 13.18211977 -2.61453722 15.67226483 -5.5 18.4375 C-7.39903312 20.4156595 -8.09899031 22.43558782 -9 25 C-9.99928333 22.301935 -10.03624754 21.11989571 -9.1875 18.3125 C-8 16 -8 16 -6 15 C-5.15258932 12.44445783 -4.52828074 9.86234081 -3.87890625 7.25 C-3.44384766 6.13625 -3.44384766 6.13625 -3 5 C-2.01 4.67 -1.02 4.34 0 4 C0 2.68 0 1.36 0 0 Z " fill="#01463B" transform="translate(313,404)"/>
<path d="M0 0 C0.99 0.33 1.98 0.66 3 1 C2.01 1.495 2.01 1.495 1 2 C2.32 2.33 3.64 2.66 5 3 C5 2.34 5 1.68 5 1 C6.65 0.67 8.3 0.34 10 0 C6.9054549 3.90181774 3.77772234 4.89099932 -0.80859375 6.28125 C-3.49433189 7.16213381 -5.70724044 8.35207906 -8 10 C-8.33 10.66 -8.66 11.32 -9 12 C-10.32 11.67 -11.64 11.34 -13 11 C-12.39671875 10.62488281 -11.7934375 10.24976563 -11.171875 9.86328125 C-6.6901007 6.99349996 -3.03350913 4.48431785 0 0 Z " fill="#6AB2A5" transform="translate(283,204)"/>
<path d="M0 0 C1.98 0.99 1.98 0.99 4 2 C4 2.99 4 3.98 4 5 C4.66 5 5.32 5 6 5 C8.14336161 8.4766338 8.21277626 11.21229195 8.125 15.25 C8.10695313 16.32765625 8.08890625 17.4053125 8.0703125 18.515625 C8.04710937 19.33546875 8.02390625 20.1553125 8 21 C6.68 21.33 5.36 21.66 4 22 C4.33 21.34 4.66 20.68 5 20 C5.22622081 18.29636178 5.40888473 16.58671299 5.5625 14.875 C5.64628906 13.96492188 5.73007812 13.05484375 5.81640625 12.1171875 C5.87699219 11.41851562 5.93757813 10.71984375 6 10 C5.34 10 4.68 10 4 10 C3.79503906 9.44570313 3.59007812 8.89140625 3.37890625 8.3203125 C3.10949219 7.59585937 2.84007812 6.87140625 2.5625 6.125 C2.29566406 5.40570313 2.02882813 4.68640625 1.75390625 3.9453125 C1.02083146 1.96351155 1.02083146 1.96351155 0 0 Z " fill="#0D2A28" transform="translate(445,363)"/>
<path d="M0 0 C0.7115625 0.680625 0.7115625 0.680625 1.4375 1.375 C4.51965635 3.32953818 7.22709518 3.77752333 10.7734375 4.46484375 C13 5 13 5 16 6.5625 C19.47868213 8.22936852 22.3328687 8.48071133 26.14453125 8.69140625 C26.75683594 8.79324219 27.36914062 8.89507812 28 9 C28.33 9.66 28.66 10.32 29 11 C16.33029613 10.22095672 16.33029613 10.22095672 11 8 C11 7.34 11 6.68 11 6 C9.1128125 5.8453125 9.1128125 5.8453125 7.1875 5.6875 C4.49101243 5.35342189 3.23682932 5.17022107 1 3.5625 C0 2 0 2 0 0 Z " fill="#00332B" transform="translate(139,338)"/>
<path d="M0 0 C0.66 0 1.32 0 2 0 C-0.16074073 9.36320984 -4.58447204 17.54651892 -9 26 C-9.33 26 -9.66 26 -10 26 C-10.125 23.625 -10.125 23.625 -10 21 C-9.34 20.34 -8.68 19.68 -8 19 C-7.45104483 17.70721058 -6.95526463 16.39117993 -6.5 15.0625 C-5.54572231 12.28783389 -4.66796263 10.50194395 -3 8 C-2.61500109 6.34450469 -2.27206865 4.6777567 -2 3 C-1.34 3 -0.68 3 0 3 C0 2.01 0 1.02 0 0 Z " fill="#15BA98" transform="translate(347,328)"/>
<path d="M0 0 C0.66 0 1.32 0 2 0 C0.57788642 3.58190104 -0.90797437 4.82876678 -4.3125 6.5625 C-6.94229188 7.92813147 -9.43517393 9.2777706 -11.9375 10.875 C-12.618125 11.24625 -13.29875 11.6175 -14 12 C-14.66 11.67 -15.32 11.34 -16 11 C-11.24314484 5.27953752 -7.43636656 2.82626295 0 2 C0 1.34 0 0.68 0 0 Z " fill="#13D0A7" transform="translate(154,302)"/>
<path d="M0 0 C0.66 0.33 1.32 0.66 2 1 C1.46875 2.79296875 1.46875 2.79296875 0 5 C-2.52076995 6.2864021 -4.86775639 7.33094374 -7.5 8.3125 C-8.18964844 8.58900391 -8.87929688 8.86550781 -9.58984375 9.15039062 C-11.36728542 9.83815314 -13.1823811 10.42678303 -15 11 C-15.66 10.67 -16.32 10.34 -17 10 C-16.01 9.67 -15.02 9.34 -14 9 C-14 8.34 -14 7.68 -14 7 C-11.41210938 5.92578125 -11.41210938 5.92578125 -8.82421875 4.8515625 C-6.73466068 3.93193308 -6.73466068 3.93193308 -4 2 C-3.01 2 -2.02 2 -1 2 C-0.67 1.34 -0.34 0.68 0 0 Z " fill="#052725" transform="translate(322,206)"/>
<path d="M0 0 C0.66 0.66 1.32 1.32 2 2 C2.66 1.67 3.32 1.34 4 1 C4.33 1.66 4.66 2.32 5 3 C7.02463255 3.65213292 7.02463255 3.65213292 9 4 C8.67 4.99 8.34 5.98 8 7 C6.37276701 6.54965877 4.74826336 6.08944646 3.125 5.625 C2.22007812 5.36976563 1.31515625 5.11453125 0.3828125 4.8515625 C-2 4 -2 4 -4 2 C-5.31747324 1.30251417 -6.64914193 0.63040043 -8 0 C-4.67679974 -1.10773342 -3.30835256 -0.93312508 0 0 Z " fill="#1F423F" transform="translate(229,151)"/>
<path d="M0 0 C2.78624173 3.25592248 3.92349313 6.34575415 5.125 10.4375 C5.45757812 11.54996094 5.79015625 12.66242188 6.1328125 13.80859375 C6.8727603 16.53173499 7.49182723 19.22579153 8 22 C6.62437146 20.71034824 5.29233607 19.37310707 4 18 C4 17.34 4 16.68 4 16 C3.34 16 2.68 16 2 16 C1.93941406 15.26394531 1.87882813 14.52789062 1.81640625 13.76953125 C1.73261719 12.79371094 1.64882812 11.81789063 1.5625 10.8125 C1.48128906 9.84957031 1.40007812 8.88664062 1.31640625 7.89453125 C1.02333849 5.21350398 0.57296246 2.6337014 0 0 Z " fill="#045C4B" transform="translate(239,388)"/>
<path d="M0 0 C0.99 0 1.98 0 3 0 C1.3341708 6.16356805 -1.87805286 11.48259656 -5 17 C-5.33 17 -5.66 17 -6 17 C-5.46148032 11.72250715 -4.22656164 7.74354436 -2 3 C-1.34 3 -0.68 3 0 3 C0 2.01 0 1.02 0 0 Z " fill="#12C09D" transform="translate(362,296)"/>
<path d="M0 0 C0.90878906 0.19916016 0.90878906 0.19916016 1.8359375 0.40234375 C7.87728368 1.67567364 13.84737892 2.50255404 20 3 C19.67 3.66 19.34 4.32 19 5 C6.10331231 5.68884385 6.10331231 5.68884385 2.1875 3.0625 C1.465625 2.381875 0.74375 1.70125 0 1 C0 0.67 0 0.34 0 0 Z " fill="#1AD3AD" transform="translate(262,453)"/>
<path d="M0 0 C1.19373708 2.88311938 1.00608676 3.98311202 -0.07421875 6.98046875 C-0.87279297 8.56794922 -0.87279297 8.56794922 -1.6875 10.1875 C-2.20699219 11.25355469 -2.72648437 12.31960938 -3.26171875 13.41796875 C-5 16 -5 16 -7.20703125 16.86328125 C-7.79871094 16.90839844 -8.39039063 16.95351563 -9 17 C-8.71125 16.443125 -8.4225 15.88625 -8.125 15.3125 C-6.9586747 12.91505355 -5.9660119 10.48403061 -5 8 C-4.34 8 -3.68 8 -3 8 C-2.690625 6.865625 -2.38125 5.73125 -2.0625 4.5625 C-1 1 -1 1 0 0 Z " fill="#002925" transform="translate(307,421)"/>
<path d="M0 0 C-2.37002413 2.61950036 -4.95453979 4.23683883 -8 6 C-8.33 6.33 -8.66 6.66 -9 7 C-10.51469448 7.23192865 -12.03754562 7.41215238 -13.5625 7.5625 C-14.38878906 7.64628906 -15.21507812 7.73007813 -16.06640625 7.81640625 C-16.70449219 7.87699219 -17.34257812 7.93757812 -18 8 C-15.88766239 3.77532477 -9.93333985 1.87653848 -5.6875 0.1875 C-2 -1 -2 -1 0 0 Z " fill="#1D3F3C" transform="translate(292,207)"/>
<path d="M0 0 C0 3.73440366 -1.03455909 4.81463026 -3 8 C-4.70744445 11.31325531 -6.35653756 14.65461203 -8 18 C-8.33 18 -8.66 18 -9 18 C-9.51019363 12.64296686 -8.16874015 10.25516534 -5 6 C-4.46375 5.071875 -3.9275 4.14375 -3.375 3.1875 C-2 1 -2 1 0 0 Z " fill="#072021" transform="translate(357,322)"/>
<path d="M0 0 C6.31249229 -0.46188968 10.80150349 1.53433566 16 5 C16 5.66 16 6.32 16 7 C4.00448483 4.03788505 4.00448483 4.03788505 0 1 C0 0.67 0 0.34 0 0 Z " fill="#5D988F" transform="translate(410,375)"/>
<path d="M0 0 C1.65 0 3.3 0 5 0 C4 3 4 3 2 4 C2 4.99 2 5.98 2 7 C0.71034824 8.37562854 -0.62689293 9.70766393 -2 11 C-2.66 11.99 -3.32 12.98 -4 14 C-4.56561146 8.34388537 -2.71391278 4.77357872 0 0 Z " fill="#0A2224" transform="translate(379,270)"/>
<path d="M0 0 C0.66 0 1.32 0 2 0 C2 0.66 2 1.32 2 2 C4.97 2 7.94 2 11 2 C11.33 3.98 11.66 5.96 12 8 C7.03533083 6.83184255 3.7615584 5.64757179 0 2 C0 1.34 0 0.68 0 0 Z " fill="#112B2C" transform="translate(269,169)"/>
<path d="M0 0 C-2.0318601 4.06372019 -7.93751479 5.39757528 -12 7 C-15.6875 7.8125 -15.6875 7.8125 -18 8 C-15.599749 3.199498 -8.91308337 1.61920691 -4.20703125 -0.328125 C-2 -1 -2 -1 0 0 Z " fill="#11A586" transform="translate(292,229)"/>
<path d="M0 0 C-1 3 -1 3 -3.07421875 4.09765625 C-3.93660156 4.41605469 -4.79898437 4.73445312 -5.6875 5.0625 C-6.58597656 5.39894531 -7.48445313 5.73539063 -8.41015625 6.08203125 C-11.26208962 7.09289753 -14.11448726 8.08878545 -17 9 C-15.62141149 6.24282298 -13.62533685 5.53678254 -11 4 C-10.34 3.34 -9.68 2.68 -9 2 C-5.62485432 0.40124678 -3.83441243 0 0 0 Z " fill="#16BC9B" transform="translate(353,196)"/>
<path d="M0 0 C2.07217485 3.10826228 3.28425355 6.01876359 4.625 9.5 C5.07101562 10.6446875 5.51703125 11.789375 5.9765625 12.96875 C7 16 7 16 7 19 C4 14.25 4 14.25 4 12 C3.01 11.67 2.02 11.34 1 11 C0.67 7.37 0.34 3.74 0 0 Z " fill="#066B58" transform="translate(254,435)"/>
<path d="M0 0 C3.09152119 0.44164588 5.91998769 0.97216963 8.875 2 C11.50803225 2.84257032 13.53833314 3.19765943 16.25 3.4375 C18.10625 3.7159375 18.10625 3.7159375 20 4 C20.99 5.485 20.99 5.485 22 7 C21.360625 6.855625 20.72125 6.71125 20.0625 6.5625 C17.17991452 5.97536863 17.17991452 5.97536863 14.9453125 5.8515625 C9.08303367 5.42558376 5.12394141 3.8880397 0 1 C0 0.67 0 0.34 0 0 Z " fill="#087E65" transform="translate(150,342)"/>
<path d="M0 0 C1.25675684 4.50337867 0.83951631 7.36094435 -1.3125 11.5625 C-3.00654388 14.00945228 -4.82561492 15.97557251 -7 18 C-7 17.01 -7 16.02 -7 15 C-6.34 15 -5.68 15 -5 15 C-4.9175 14.195625 -4.835 13.39125 -4.75 12.5625 C-3.79803325 8.04065795 -1.98419821 4.15297299 0 0 Z " fill="#062122" transform="translate(415,195)"/>
<path d="M0 0 C0.33 0.66 0.66 1.32 1 2 C-0.07518118 4.44332726 -1.19808566 6.76754523 -2.4375 9.125 C-2.77587891 9.78371094 -3.11425781 10.44242187 -3.46289062 11.12109375 C-4.30149926 12.75106547 -5.14984811 14.37601909 -6 16 C-7.55945072 12.88109857 -6.64552918 10.34501482 -6 7 C-5.34 6.01 -4.68 5.02 -4 4 C-3.01 4 -2.02 4 -1 4 C-0.67 2.68 -0.34 1.36 0 0 Z " fill="#0FA687" transform="translate(325,378)"/>
<path d="M0 0 C2.65079721 1.32539861 2.90342592 2.61974614 4.0625 5.3125 C4.40410156 6.09238281 4.74570313 6.87226563 5.09765625 7.67578125 C5.91288309 9.77560797 6.51258082 11.80410124 7 14 C5.68 14.33 4.36 14.66 3 15 C2.814375 13.948125 2.814375 13.948125 2.625 12.875 C2.04595831 9.93533752 2.04595831 9.93533752 0.9375 6.9375 C0 4 0 4 0 0 Z " fill="#254B46" transform="translate(207,178)"/>
<path d="M0 0 C1.28617662 3.85852985 0.42756222 4.95914031 -1.1875 8.625 C-1.64898437 9.68460937 -2.11046875 10.74421875 -2.5859375 11.8359375 C-3.05257813 12.88007813 -3.51921875 13.92421875 -4 15 C-4.40476562 15.92039062 -4.80953125 16.84078125 -5.2265625 17.7890625 C-6.14199757 19.86360961 -7.06601516 21.9337542 -8 24 C-9.140625 20.3125 -9.140625 20.3125 -7.875 17.5 C-7.25625 16.345 -6.6375 15.19 -6 14 C-4.66179467 10.88296075 -3.37394909 7.7474396 -2.0859375 4.609375 C-1.43795925 3.05236252 -0.75421001 1.50842002 0 0 Z " fill="#10967B" transform="translate(304,420)"/>
<path d="M0 0 C0.66 0 1.32 0 2 0 C1.39644592 3.85025879 0.23227397 6.86101159 -1.5625 10.3125 C-2.01753906 11.19550781 -2.47257812 12.07851563 -2.94140625 12.98828125 C-3.29074219 13.65214844 -3.64007813 14.31601562 -4 15 C-4.33 15 -4.66 15 -5 15 C-4.14285714 6.42857143 -4.14285714 6.42857143 -2 3 C-1.34 3 -0.68 3 0 3 C0 2.01 0 1.02 0 0 Z " fill="#14C8A3" transform="translate(354,313)"/>
<path d="M0 0 C2.8601237 -0.23834364 5.19757555 -0.43237406 8 0 C10.5625 2.25 10.5625 2.25 12 5 C11.58984375 7.171875 11.58984375 7.171875 11 9 C10.45730469 8.51789063 9.91460937 8.03578125 9.35546875 7.5390625 C8.64003906 6.90742188 7.92460937 6.27578125 7.1875 5.625 C6.47980469 4.99851563 5.77210938 4.37203125 5.04296875 3.7265625 C2.91196181 1.859401 2.91196181 1.859401 0 0 Z " fill="#044D42" transform="translate(398,175)"/>
<path d="M0 0 C1.65 0 3.3 0 5 0 C5 0.99 5 1.98 5 3 C4.01 3 3.02 3 2 3 C1.67 3.99 1.34 4.98 1 6 C-1.33116317 7.60769874 -2.42816426 8.09530596 -5.25 7.625 C-5.8275 7.41875 -6.405 7.2125 -7 7 C-3.25 4 -3.25 4 -1 4 C-0.67 2.68 -0.34 1.36 0 0 Z " fill="#052321" transform="translate(255,240)"/>
<path d="M0 0 C0.33 0 0.66 0 1 0 C1.71717425 8.98858388 0.4428394 16.07020483 -4 24 C-4.66 24.33 -5.32 24.66 -6 25 C-4.99302332 21.28193227 -3.9154096 17.74462556 -2.4375 14.1875 C-0.63959206 9.56560535 -0.29224682 4.91780851 0 0 Z " fill="#149E83" transform="translate(411,188)"/>
<path d="M0 0 C4.875 3.75 4.875 3.75 6 6 C6.07065617 8.04055005 6.08421976 10.08334257 6.0625 12.125 C6.05347656 13.22070312 6.04445313 14.31640625 6.03515625 15.4453125 C6.02355469 16.28835937 6.01195312 17.13140625 6 18 C5.34 18.33 4.68 18.66 4 19 C4.01160156 18.36191406 4.02320313 17.72382813 4.03515625 17.06640625 C4.04417969 16.24011719 4.05320312 15.41382813 4.0625 14.5625 C4.07990234 13.32693359 4.07990234 13.32693359 4.09765625 12.06640625 C4.23267348 10.00836062 4.23267348 10.00836062 3 9 C2.95936168 7.33382885 2.957279 5.66611905 3 4 C2.34 4 1.68 4 1 4 C0.67 2.68 0.34 1.36 0 0 Z " fill="#19C4A1" transform="translate(405,180)"/>
<path d="M0 0 C3.67758005 3.28355362 5.81389118 6.62778237 8 11 C7.67 11.66 7.34 12.32 7 13 C6.34 12.67 5.68 12.34 5 12 C5 11.34 5 10.68 5 10 C4.01 9.67 3.02 9.34 2 9 C0.29466783 5.67908998 0 3.81507216 0 0 Z " fill="#82D0C2" transform="translate(406,291)"/>
<path d="M0 0 C-0.99 0.33 -1.98 0.66 -3 1 C-3.33 1.66 -3.66 2.32 -4 3 C-6.28515625 3.6328125 -6.28515625 3.6328125 -9.0625 4.125 C-9.98160156 4.29257812 -10.90070313 4.46015625 -11.84765625 4.6328125 C-12.91306641 4.81457031 -12.91306641 4.81457031 -14 5 C-14 5.66 -14 6.32 -14 7 C-15.32 7.33 -16.64 7.66 -18 8 C-17.67 7.34 -17.34 6.68 -17 6 C-16.34 6 -15.68 6 -15 6 C-15 5.34 -15 4.68 -15 4 C-13.25705322 3.13153169 -11.50531337 2.28069373 -9.75 1.4375 C-8.77546875 0.96183594 -7.8009375 0.48617188 -6.796875 -0.00390625 C-3.90143703 -1.03510273 -2.80033839 -1.11346788 0 0 Z " fill="#066753" transform="translate(208,274)"/>
<path d="M0 0 C-1.89041482 1.154751 -3.78757599 2.29846233 -5.6875 3.4375 C-7.27111328 4.39462891 -7.27111328 4.39462891 -8.88671875 5.37109375 C-11.71009314 6.84831724 -13.86866977 7.58752422 -17 8 C-17 7.34 -17 6.68 -17 6 C-16.38125 5.896875 -15.7625 5.79375 -15.125 5.6875 C-12.63473516 5.12474627 -12.63473516 5.12474627 -11 2 C-8.90625 1.015625 -8.90625 1.015625 -6.5 0.25 C-5.30890625 -0.14445312 -5.30890625 -0.14445312 -4.09375 -0.546875 C-2 -1 -2 -1 0 0 Z " fill="#014034" transform="translate(220,266)"/>
<path d="M0 0 C0.33 0 0.66 0 1 0 C1 1.98 1 3.96 1 6 C0.01 6 -0.98 6 -2 6 C-1.9175 6.66 -1.835 7.32 -1.75 8 C-2.10103641 12.21243694 -3.96960773 15.34710677 -6 19 C-7.31712811 15.37789769 -6.68301982 13.32755223 -5.25 9.8125 C-4.73179687 8.49185547 -4.73179687 8.49185547 -4.203125 7.14453125 C-3 5 -3 5 0 4 C0 2.68 0 1.36 0 0 Z " fill="#75BEB2" transform="translate(381,310)"/>
<path d="M0 0 C0.99 0.33 1.98 0.66 3 1 C3.33 3.97 3.66 6.94 4 10 C2.68 9.67 1.36 9.34 0 9 C-0.84454356 5.62182575 -1.10844919 3.32534757 0 0 Z " fill="#0CDBB1" transform="translate(262,444)"/>
<path d="M0 0 C2.31 0.33 4.62 0.66 7 1 C7 1.66 7 2.32 7 3 C8.98 3.66 10.96 4.32 13 5 C13 5.33 13 5.66 13 6 C7.375 6.25 7.375 6.25 4 4 C4 3.34 4 2.68 4 2 C2.68 1.67 1.36 1.34 0 1 C0 0.67 0 0.34 0 0 Z " fill="#4B847A" transform="translate(387,364)"/>
<path d="M0 0 C10.83766816 -0.92017937 10.83766816 -0.92017937 13.6875 1.3359375 C14.75 3 14.75 3 16 6 C15.67 6.66 15.34 7.32 15 8 C13 6.1875 13 6.1875 11 4 C11 3.01 11 2.02 11 1 C9.3745692 1.14095064 7.74965949 1.28792087 6.125 1.4375 C5.22007812 1.51871094 4.31515625 1.59992188 3.3828125 1.68359375 C0.98889139 1.86989285 0.98889139 1.86989285 -1 3 C-0.67 2.01 -0.34 1.02 0 0 Z " fill="#4D857C" transform="translate(393,285)"/>
<path d="M0 0 C4.16682108 4.30123467 4.53651579 7.25279583 5 13 C5.33 13.99 5.66 14.98 6 16 C5.01 16.33 4.02 16.66 3 17 C2.92652344 16.07767578 2.92652344 16.07767578 2.8515625 15.13671875 C2.77679688 14.32847656 2.70203125 13.52023437 2.625 12.6875 C2.55539063 11.88699219 2.48578125 11.08648437 2.4140625 10.26171875 C2.10435574 7.72775559 2.10435574 7.72775559 0 5 C-0.125 2.3125 -0.125 2.3125 0 0 Z " fill="#002A24" transform="translate(235,379)"/>
<path d="M0 0 C1.66611905 -0.042721 3.33382885 -0.04063832 5 0 C5.33 0.33 5.66 0.66 6 1 C7.34747084 1.23075082 8.70377565 1.41153063 10.0625 1.5625 C11.361875 1.706875 12.66125 1.85125 14 2 C14 2.66 14 3.32 14 4 C14.66 4.33 15.32 4.66 16 5 C12.37 4.67 8.74 4.34 5 4 C4.67 3.01 4.34 2.02 4 1 C1.98491642 0.26676204 1.98491642 0.26676204 0 0 Z " fill="#035E4E" transform="translate(172,349)"/>
<path d="M0 0 C4.44744951 2.22372475 5.64859589 3.71708537 8 8 C8.25 10.875 8.25 10.875 8 13 C7.34 12.67 6.68 12.34 6 12 C6 10.68 6 9.36 6 8 C5.34 8 4.68 8 4 8 C2.68 5.36 1.36 2.72 0 0 Z " fill="#102528" transform="translate(407,288)"/>
<path d="M0 0 C1.19594292 3.99221233 0.68790338 6.14193513 -1 10 C-3.125 12.375 -3.125 12.375 -5 14 C-5.33 13.34 -5.66 12.68 -6 12 C-5.67 11.01 -5.34 10.02 -5 9 C-4.34 8.67 -3.68 8.34 -3 8 C-2.09656316 6.11736119 -2.09656316 6.11736119 -1.375 3.9375 C-0.98441406 2.83728516 -0.98441406 2.83728516 -0.5859375 1.71484375 C-0.39257812 1.14894531 -0.19921875 0.58304688 0 0 Z " fill="#03443D" transform="translate(395,234)"/>
<path d="M0 0 C0.66 0.33 1.32 0.66 2 1 C-0.56541703 3.99298654 -3.3726848 5.50639962 -7 7 C-10.375 7.1875 -10.375 7.1875 -13 7 C-10.35787411 5.23858274 -7.7572236 3.76181302 -4.9375 2.3125 C-3.62072266 1.62607422 -3.62072266 1.62607422 -2.27734375 0.92578125 C-1.52582031 0.62027344 -0.77429688 0.31476563 0 0 Z " fill="#19C9A4" transform="translate(316,215)"/>
<path d="M0 0 C0.66 0.66 1.32 1.32 2 2 C0.84826645 4.46800047 -0.04783565 6.04783565 -2 8 C-2.33 8.845625 -2.66 9.69125 -3 10.5625 C-4 13 -4 13 -6 14 C-5.01 11.03 -4.02 8.06 -3 5 C-2.34 5 -1.68 5 -1 5 C-0.67 3.35 -0.34 1.7 0 0 Z " fill="#0B1E21" transform="translate(364,304)"/>
<path d="M0 0 C-0.33 0.99 -0.66 1.98 -1 3 C-1.99 3.33 -2.98 3.66 -4 4 C-4.4125 4.495 -4.825 4.99 -5.25 5.5 C-7.88955365 7.76247456 -10.62270673 7.68138743 -14 8 C-3.89473684 0 -3.89473684 0 0 0 Z " fill="#032726" transform="translate(343,196)"/>
<path d="M0 0 C1.8125 1.375 1.8125 1.375 3 3 C3 3.66 3 4.32 3 5 C-2.94 3.515 -2.94 3.515 -9 2 C-5.26338858 0.13169429 -3.96410824 -0.508219 0 0 Z " fill="#13B291" transform="translate(229,361)"/>
<path d="M0 0 C0.66 0.33 1.32 0.66 2 1 C0.17251097 3.46313739 -1.22976216 4.83428618 -4.26953125 5.48828125 C-6.51479346 5.72518293 -8.74455578 5.90361349 -11 6 C-10.34 5.67 -9.68 5.34 -9 5 C-9 4.34 -9 3.68 -9 3 C-7.02 3 -5.04 3 -3 3 C-3 2.34 -3 1.68 -3 1 C-2.01 0.67 -1.02 0.34 0 0 Z " fill="#14D0AB" transform="translate(167,296)"/>
<path d="M0 0 C0.66 0.33 1.32 0.66 2 1 C0.71186658 1.83878455 -0.58063256 2.67086783 -1.875 3.5 C-2.59429687 3.9640625 -3.31359375 4.428125 -4.0546875 4.90625 C-6 6 -6 6 -8 6 C-8 6.66 -8 7.32 -8 8 C-9.32 8.33 -10.64 8.66 -12 9 C-12 8.34 -12 7.68 -12 7 C-8.32985327 3.55228641 -4.68152302 1.67828184 0 0 Z " fill="#055748" transform="translate(166,293)"/>
<path d="M0 0 C-3.51822249 4.43601966 -7.75390186 5.52033129 -13 7 C-13 6.34 -13 5.68 -13 5 C-12.01 5 -11.02 5 -10 5 C-10 4.34 -10 3.68 -10 3 C-9.01 3 -8.02 3 -7 3 C-7 2.34 -7 1.68 -7 1 C-4.53721199 -0.231394 -2.7204945 -0.07159196 0 0 Z " fill="#013C36" transform="translate(233,258)"/>
<path d="M0 0 C-1.36125 0.6496875 -1.36125 0.6496875 -2.75 1.3125 C-5.9218074 2.81818437 -5.9218074 2.81818437 -8.0625 4.6875 C-10.50754255 6.34381914 -12.1075375 6.24103854 -15 6 C-13.62034266 3.24068532 -11.91419385 2.70578866 -9.1875 1.3125 C-7.87845703 0.62607422 -7.87845703 0.62607422 -6.54296875 -0.07421875 C-3.7921588 -1.07566569 -2.68514734 -1.03274898 0 0 Z " fill="#13D1AC" transform="translate(255,251)"/>
<path d="M0 0 C0.33 0.66 0.66 1.32 1 2 C1.99 2.33 2.98 2.66 4 3 C3.67 4.32 3.34 5.64 3 7 C1.02 7.33 -0.96 7.66 -3 8 C-3 6.68 -3 5.36 -3 4 C-2.34 4 -1.68 4 -1 4 C-0.67 2.68 -0.34 1.36 0 0 Z " fill="#233F3C" transform="translate(228,220)"/>
<path d="M0 0 C1.58624235 0.42683239 3.1689098 0.86696158 4.75 1.3125 C6.07257813 1.67794922 6.07257813 1.67794922 7.421875 2.05078125 C10.05772505 3.02125331 11.85407326 4.21005644 14 6 C4.82713348 5.80743982 4.82713348 5.80743982 1.375 2.4375 C0.92125 1.633125 0.4675 0.82875 0 0 Z " fill="#3F706A" transform="translate(373,358)"/>
<path d="M0 0 C1.65 0 3.3 0 5 0 C5 0.66 5 1.32 5 2 C3.71349294 2.69710731 2.42059335 3.38242876 1.125 4.0625 C0.04605469 4.63677734 0.04605469 4.63677734 -1.0546875 5.22265625 C-1.69664062 5.47917969 -2.33859375 5.73570312 -3 6 C-3.66 5.67 -4.32 5.34 -5 5 C-4.67 4.01 -4.34 3.02 -4 2 C-2.68 2 -1.36 2 0 2 C0 1.34 0 0.68 0 0 Z " fill="#014C3F" transform="translate(287,226)"/>
<path d="M0 0 C1 3 1 3 -0.1875 6.5 C-1.88906681 9.78578418 -2.87850793 11.17015982 -6 13 C-5.51675181 7.84535266 -2.81389239 4.18449681 0 0 Z " fill="#11CFA6" transform="translate(401,216)"/>
<path d="M0 0 C1 3 1 3 0.07421875 5.4453125 C-0.38339844 6.32960937 -0.84101563 7.21390625 -1.3125 8.125 C-1.98732422 9.45917969 -1.98732422 9.45917969 -2.67578125 10.8203125 C-4 13 -4 13 -6 14 C-5.33501617 9.61110675 -3.81242323 6.0188515 -2 2 C-1.34 2 -0.68 2 0 2 C0 1.34 0 0.68 0 0 Z " fill="#18CBA5" transform="translate(408,202)"/>
<path d="M0 0 C3.66274066 3.11787015 4.73578169 5.58459578 5.75 10.25 C6.11351562 11.86648438 6.11351562 11.86648438 6.484375 13.515625 C6.73960937 14.74539063 6.73960937 14.74539063 7 16 C3.8601549 14.43007745 3.57856654 11.77552998 2.375 8.5625 C1.92898438 7.38816406 1.48296875 6.21382813 1.0234375 5.00390625 C0 2 0 2 0 0 Z " fill="#13C39C" transform="translate(255,436)"/>
<path d="M0 0 C-1.59766103 0.86627399 -3.20339944 1.71766465 -4.8125 2.5625 C-5.70582031 3.03816406 -6.59914063 3.51382813 -7.51953125 4.00390625 C-10 5 -10 5 -13 4 C-8.36530233 0.00901034 -5.93343239 -1.61596599 0 0 Z " fill="#01322E" transform="translate(374,183)"/>
<path d="M0 0 C0.66 0 1.32 0 2 0 C3.65 2.97 5.3 5.94 7 9 C6.01 9 5.02 9 4 9 C3.34 7.35 2.68 5.7 2 4 C1.34 4 0.68 4 0 4 C0 2.68 0 1.36 0 0 Z " fill="#044237" transform="translate(132,328)"/>
<path d="M0 0 C1.65 0 3.3 0 5 0 C-3.20689655 7 -3.20689655 7 -8 7 C-8 6.34 -8 5.68 -8 5 C-7.01 5 -6.02 5 -5 5 C-5 4.34 -5 3.68 -5 3 C-3.35 2.67 -1.7 2.34 0 2 C0 1.34 0 0.68 0 0 Z " fill="#002B27" transform="translate(188,279)"/>
<path d="M0 0 C0 0.99 0 1.98 0 3 C-1.45706726 3.50367757 -2.91570096 4.00282556 -4.375 4.5 C-5.59316406 4.91765625 -5.59316406 4.91765625 -6.8359375 5.34375 C-9 6 -9 6 -11 6 C-11 5.34 -11 4.68 -11 4 C-9.88625 3.525625 -8.7725 3.05125 -7.625 2.5625 C-1.68 0 -1.68 0 0 0 Z " fill="#14AC90" transform="translate(260,245)"/>
<path d="M0 0 C0.66 0.33 1.32 0.66 2 1 C-1.88309282 4.64775386 -4.71201818 5.58525633 -10 6 C-9.34 5.67 -8.68 5.34 -8 5 C-8 4.34 -8 3.68 -8 3 C-7.05125 2.690625 -6.1025 2.38125 -5.125 2.0625 C-2.13919592 1.12605258 -2.13919592 1.12605258 0 0 Z " fill="#12D6B0" transform="translate(334,206)"/>
<path d="M0 0 C5.05255964 0.63156995 9.29593201 2.13459373 14 4 C10.01344251 5.20284062 7.87029931 4.61262471 4 3 C1.625 1.375 1.625 1.375 0 0 Z " fill="#11CBA3" transform="translate(210,357)"/>
<path d="M0 0 C1.32 0 2.64 0 4 0 C3.57742724 1.4835001 3.13643678 2.96176424 2.6875 4.4375 C2.44386719 5.26121094 2.20023437 6.08492188 1.94921875 6.93359375 C1.63597656 7.61550781 1.32273437 8.29742187 1 9 C0.01 9.33 -0.98 9.66 -2 10 C-1.855625 9.46375 -1.71125 8.9275 -1.5625 8.375 C-0.90546252 5.60084173 -0.44780052 2.81474612 0 0 Z " fill="#0D2A2A" transform="translate(387,286)"/>
<path d="M0 0 C-1.305239 2.61047801 -2.35826574 2.68066423 -5.0625 3.625 C-6.16271484 4.01558594 -6.16271484 4.01558594 -7.28515625 4.4140625 C-7.85105469 4.60742188 -8.41695312 4.80078125 -9 5 C-9 3.68 -9 2.36 -9 1 C-5.8035914 -0.06546953 -3.34252724 -0.07427838 0 0 Z " fill="#12D3AC" transform="translate(214,273)"/>
<path d="M0 0 C1.65 0 3.3 0 5 0 C4.67 1.65 4.34 3.3 4 5 C2.68 5 1.36 5 0 5 C0 4.34 0 3.68 0 3 C-0.99 2.67 -1.98 2.34 -3 2 C-2.01 2 -1.02 2 0 2 C0 1.34 0 0.68 0 0 Z " fill="#112427" transform="translate(220,146)"/>
<path d="M0 0 C0.66 0 1.32 0 2 0 C2.53154742 1.60064843 3.04988353 3.20568874 3.5625 4.8125 C3.85253906 5.70582031 4.14257812 6.59914063 4.44140625 7.51953125 C5 10 5 10 4 13 C3.32694982 11.39850114 2.66177773 9.79368971 2 8.1875 C1.62875 7.29417969 1.2575 6.40085937 0.875 5.48046875 C0 3 0 3 0 0 Z " fill="#17BF9B" transform="translate(242,393)"/>
<path d="M0 0 C3.04376178 2.02917452 3.74810874 2.72582285 5 6 C5 7.32 5 8.64 5 10 C5.66 10 6.32 10 7 10 C6.67 11.32 6.34 12.64 6 14 C3.80291879 11.80291879 3.35322321 10.48226667 2.4375 7.5625 C2.18871094 6.78003906 1.93992187 5.99757813 1.68359375 5.19140625 C1.45800781 4.46824219 1.23242188 3.74507813 1 3 C0.67 2.01 0.34 1.02 0 0 Z " fill="#5A9A90" transform="translate(444,363)"/>
<path d="M0 0 C0.66 0.33 1.32 0.66 2 1 C-1.01887244 4.48331435 -3.56909529 5.79157144 -8 7 C-6.89300099 3.78970286 -5.98396175 2.99031023 -3 1.1875 C-1.515 0.5996875 -1.515 0.5996875 0 0 Z " fill="#0B8F75" transform="translate(188,282)"/>
<path d="M0 0 C0 0.66 0 1.32 0 2 C-0.99 2 -1.98 2 -3 2 C-3 2.66 -3 3.32 -3 4 C-7.95 5.485 -7.95 5.485 -13 7 C-11.60643954 4.21287908 -9.83494327 3.73536671 -7.0625 2.375 C-6.16660156 1.92898438 -5.27070313 1.48296875 -4.34765625 1.0234375 C-2 0 -2 0 0 0 Z " fill="#031E1C" transform="translate(223,261)"/>
<path d="M0 0 C0.99 0 1.98 0 3 0 C2.67 0.99 2.34 1.98 2 3 C-0.0625 3.6875 -0.0625 3.6875 -2 4 C-2 4.66 -2 5.32 -2 6 C-3.65 6 -5.3 6 -7 6 C-6.21625 5.38125 -5.4325 4.7625 -4.625 4.125 C-2.03162353 2.10141339 -2.03162353 2.10141339 0 0 Z " fill="#022120" transform="translate(236,252)"/>
<path d="M0 0 C3.125 0.375 3.125 0.375 6 1 C5.67 1.99 5.34 2.98 5 4 C3.02 4.33 1.04 4.66 -1 5 C-1.33 4.01 -1.66 3.02 -2 2 C-1.34 1.34 -0.68 0.68 0 0 Z " fill="#101C23" transform="translate(266,233)"/>
<path d="M0 0 C0.99 0 1.98 0 3 0 C2.6875 1.875 2.6875 1.875 2 4 C-1 6 -1 6 -4 6 C-3.34 4.68 -2.68 3.36 -2 2 C-1.34 2 -0.68 2 0 2 C0 1.34 0 0.68 0 0 Z " fill="#13D3AA" transform="translate(370,185)"/>
<path d="M0 0 C1.32 0 2.64 0 4 0 C4.5625 1.9375 4.5625 1.9375 5 4 C4 5 4 5 0.9375 5.0625 C-0.5165625 5.0315625 -0.5165625 5.0315625 -2 5 C-1.34 4.34 -0.68 3.68 0 3 C0 2.01 0 1.02 0 0 Z " fill="#111D23" transform="translate(356,185)"/>
<path d="M0 0 C1 2 1 2 0.875 5.375 C1.00605183 9.17550316 1.43210977 10.32511434 4 13 C3.67 13.66 3.34 14.32 3 15 C0 13 0 13 -1 10 C-1.09182942 8.46050671 -1.13002352 6.91722145 -1.125 5.375 C-1.12757813 4.57835937 -1.13015625 3.78171875 -1.1328125 2.9609375 C-1 1 -1 1 0 0 Z " fill="#467C74" transform="translate(197,150)"/>
<path d="M0 0 C1 4 1 4 0.22265625 5.921875 C-0.8515625 7.61458333 -1.92578125 9.30729167 -3 11 C-3.66 10.67 -4.32 10.34 -5 10 C-3.35 6.7 -1.7 3.4 0 0 Z " fill="#06594B" transform="translate(294,444)"/>
<path d="M0 0 C0.33 0 0.66 0 1 0 C0.50769231 7.38461538 0.50769231 7.38461538 -2.0625 10.5 C-2.701875 10.995 -3.34125 11.49 -4 12 C-3.33989524 9.15449988 -2.48275034 6.47674001 -1.4375 3.75 C-1.16808594 3.04359375 -0.89867187 2.3371875 -0.62109375 1.609375 C-0.41613281 1.07828125 -0.21117187 0.5471875 0 0 Z " fill="#00241F" transform="translate(297,440)"/>
<path d="M0 0 C0.33 0 0.66 0 1 0 C1.17942163 3.94727588 1.09350689 6.5980513 -1 10 C-1.99 10 -2.98 10 -4 10 C-3.52449439 8.51965236 -3.04448784 7.04074979 -2.5625 5.5625 C-2.29566406 4.73878906 -2.02882813 3.91507812 -1.75390625 3.06640625 C-1 1 -1 1 0 0 Z " fill="#13D6AD" transform="translate(325,372)"/>
<path d="M0 0 C0.66 0.33 1.32 0.66 2 1 C1.34 2.98 0.68 4.96 0 7 C-0.66 7 -1.32 7 -2 7 C-2.33 7.99 -2.66 8.98 -3 10 C-3.33 8.35 -3.66 6.7 -4 5 C-3.34 5 -2.68 5 -2 5 C-2 4.34 -2 3.68 -2 3 C-1.34 3 -0.68 3 0 3 C0 2.01 0 1.02 0 0 Z " fill="#1F4443" transform="translate(375,318)"/>
<path d="M0 0 C0.66 0 1.32 0 2 0 C2.33 1.98 2.66 3.96 3 6 C1.35 6.33 -0.3 6.66 -2 7 C-2 5.68 -2 4.36 -2 3 C-1.34 3 -0.68 3 0 3 C0 2.01 0 1.02 0 0 Z " fill="#181A25" transform="translate(372,289)"/>
<path d="M0 0 C0.33 0.99 0.66 1.98 1 3 C-0.32 3.99 -1.64 4.98 -3 6 C-4.32 5.34 -5.64 4.68 -7 4 C-6.34 4 -5.68 4 -5 4 C-5 3.34 -5 2.68 -5 2 C-3.35 1.34 -1.7 0.68 0 0 Z " fill="#11B692" transform="translate(199,277)"/>
<path d="M0 0 C0.66 0 1.32 0 2 0 C1.67 1.65 1.34 3.3 1 5 C0.360625 5.12375 -0.27875 5.2475 -0.9375 5.375 C-1.9584375 5.684375 -1.9584375 5.684375 -3 6 C-3.33 6.66 -3.66 7.32 -4 8 C-4 6.68 -4 5.36 -4 4 C-3.01 4 -2.02 4 -1 4 C-0.67 2.68 -0.34 1.36 0 0 Z " fill="#033631" transform="translate(382,264)"/>
<path d="M0 0 C-2.64 1.98 -5.28 3.96 -8 6 C-8.66 5.67 -9.32 5.34 -10 5 C-9.875 3.125 -9.875 3.125 -9 1 C-5.3931275 -0.64661571 -3.8148779 -1.27162597 0 0 Z " fill="#0E2325" transform="translate(279,215)"/>
<path d="M0 0 C0 0.66 0 1.32 0 2 C-2.47346304 4.47346304 -3.70761168 4.98313144 -7.25 5.1875 C-8.1575 5.125625 -9.065 5.06375 -10 5 C-8.28489314 1.56978628 -3.75681361 0 0 0 Z " fill="#0D8871" transform="translate(370,185)"/>
<path d="M0 0 C3.79303725 1.00193437 6.71536341 1.81024227 10 4 C4.62295082 5.3442623 4.62295082 5.3442623 1.625 3.6875 C0 2 0 2 0 0 Z " fill="#13312D" transform="translate(381,363)"/>
<path d="M0 0 C0.66 0.33 1.32 0.66 2 1 C-0.475 5.455 -0.475 5.455 -3 10 C-3.66 9.67 -4.32 9.34 -5 9 C-4.67 7.68 -4.34 6.36 -4 5 C-3.34 5 -2.68 5 -2 5 C-1.7834375 4.0409375 -1.7834375 4.0409375 -1.5625 3.0625 C-1 1 -1 1 0 0 Z " fill="#16C8A2" transform="translate(378,265)"/>
<path d="M0 0 C3.3 0.33 6.6 0.66 10 1 C7.60880279 3.39119721 6.30355083 3.59712795 3 4 C2.01 3.67 1.02 3.34 0 3 C0 2.01 0 1.02 0 0 Z " fill="#1D3F3D" transform="translate(234,229)"/>
<path d="M0 0 C0.66 0 1.32 0 2 0 C1.67 1.98 1.34 3.96 1 6 C0.34 6 -0.32 6 -1 6 C-1.66 7.32 -2.32 8.64 -3 10 C-3.33 9.34 -3.66 8.68 -4 8 C-3.0625 5.875 -3.0625 5.875 -2 4 C-1.34 4 -0.68 4 0 4 C0 2.68 0 1.36 0 0 Z " fill="#045D4D" transform="translate(313,404)"/>
<path d="M0 0 C0.33 0 0.66 0 1 0 C1.36923077 7.50769231 1.36923077 7.50769231 -0.5 10 C-0.995 10.33 -1.49 10.66 -2 11 C-3 9 -3 9 -2.44140625 6.8359375 C-2.15136719 6.02382813 -1.86132812 5.21171875 -1.5625 4.375 C-1.27503906 3.55773437 -0.98757813 2.74046875 -0.69140625 1.8984375 C-0.46324219 1.27195312 -0.23507812 0.64546875 0 0 Z " fill="#13D8AE" transform="translate(318,384)"/>
<path d="M0 0 C0.6875 1.625 0.6875 1.625 1 4 C-0.4375 7.25 -0.4375 7.25 -2 10 C-2.66 10 -3.32 10 -4 10 C-3.29445932 6.33118845 -1.72264494 3.29549466 0 0 Z " fill="#002925" transform="translate(332,368)"/>
<path d="M0 0 C0.33 0.66 0.66 1.32 1 2 C0.22265625 3.9453125 0.22265625 3.9453125 -0.9375 6.125 C-1.31777344 6.84945313 -1.69804687 7.57390625 -2.08984375 8.3203125 C-2.39019531 8.87460937 -2.69054687 9.42890625 -3 10 C-4.15941038 6.52176885 -3.70820884 4.54104422 -3 1 C-2.01 0.67 -1.02 0.34 0 0 Z " fill="#15BB98" transform="translate(336,354)"/>
<path d="M0 0 C-1.125 1.5 -1.125 1.5 -3 3 C-6.1875 3.1875 -6.1875 3.1875 -9 3 C-7.01532024 -0.96935951 -3.9567243 -1.41311582 0 0 Z " fill="#11AF8F" transform="translate(217,270)"/>
<path d="M0 0 C0.33 0.99 0.66 1.98 1 3 C-0.41488448 5.76239351 -1.80363095 7.80363095 -4 10 C-4 8.02 -4 6.04 -4 4 C-3.01 3.67 -2.02 3.34 -1 3 C-0.67 2.01 -0.34 1.02 0 0 Z " fill="#042525" transform="translate(393,244)"/>
<path d="M0 0 C1 2 1 2 0.1875 4.875 C-0.75524181 7.3558995 -1.7442206 9.66783825 -3 12 C-3.88336837 9.5332355 -4.1312406 8.36140628 -3.22265625 5.859375 C-2.83980469 5.16328125 -2.45695312 4.4671875 -2.0625 3.75 C-1.68222656 3.04359375 -1.30195313 2.3371875 -0.91015625 1.609375 C-0.60980469 1.07828125 -0.30945313 0.5471875 0 0 Z " fill="#072224" transform="translate(407,213)"/>
<path d="M0 0 C0 0.99 0 1.98 0 3 C-0.93972656 3.19916016 -0.93972656 3.19916016 -1.8984375 3.40234375 C-3.12433594 3.66724609 -3.12433594 3.66724609 -4.375 3.9375 C-5.18710937 4.11152344 -5.99921875 4.28554687 -6.8359375 4.46484375 C-9.029463 4.92330693 -9.029463 4.92330693 -11 6 C-10 3 -10 3 -8.22265625 2.05078125 C-7.50980469 1.80714844 -6.79695313 1.56351563 -6.0625 1.3125 C-5.35222656 1.06113281 -4.64195312 0.80976563 -3.91015625 0.55078125 C-2 0 -2 0 0 0 Z " fill="#4D837C" transform="translate(270,216)"/>
<path d="M0 0 C-0.33 0.99 -0.66 1.98 -1 3 C-3.31 3.33 -5.62 3.66 -8 4 C-4.5 0 -4.5 0 0 0 Z " fill="#14A889" transform="translate(324,211)"/>
<path d="M0 0 C0.66 1.32 1.32 2.64 2 4 C0.35 5.98 -1.3 7.96 -3 10 C-4 7 -4 7 -3.22265625 5.17578125 C-2.1484375 3.45052083 -1.07421875 1.72526042 0 0 Z " fill="#082121" transform="translate(388,254)"/>
<path d="M0 0 C0.99 0 1.98 0 3 0 C3 1.65 3 3.3 3 5 C3.66 5 4.32 5 5 5 C5 6.65 5 8.3 5 10 C2.35534962 6.8745041 1.15585285 3.91211733 0 0 Z " fill="#6BB0A1" transform="translate(225,212)"/>
<path d="M0 0 C2.8125 -0.25 2.8125 -0.25 6 0 C7.875 2 7.875 2 9 4 C8.67 4.66 8.34 5.32 8 6 C7.236875 5.38125 6.47375 4.7625 5.6875 4.125 C3.00374191 1.94402948 3.00374191 1.94402948 0 0 Z " fill="#36645F" transform="translate(292,183)"/>
<path d="M0 0 C2.46800047 1.15173355 4.04783565 2.04783565 6 4 C5.67 4.66 5.34 5.32 5 6 C3.35 5.67 1.7 5.34 0 5 C-0.33 4.01 -0.66 3.02 -1 2 C-0.67 1.34 -0.34 0.68 0 0 Z " fill="#1A3533" transform="translate(232,152)"/>
<path d="M0 0 C-2.55068845 2.35448165 -3.71017358 2.98327924 -7.25 3.1875 C-8.1575 3.125625 -9.065 3.06375 -10 3 C-6.74534559 -0.25465441 -4.4822096 -1.60078914 0 0 Z " fill="#0E2525" transform="translate(252,229)"/>
<path d="M0 0 C-0.99 0.495 -0.99 0.495 -2 1 C-2.33 1.66 -2.66 2.32 -3 3 C-5.0625 4.125 -5.0625 4.125 -7 5 C-7.33 4.34 -7.66 3.68 -8 3 C-5.53387212 -0.1151089 -3.89156016 -0.31553191 0 0 Z " fill="#0F1F23" transform="translate(299,205)"/>
<path d="M0 0 C-6 4 -6 4 -8.1875 3.625 C-8.785625 3.41875 -9.38375 3.2125 -10 3 C-6.68152292 -0.06320961 -4.44849969 -0.3033068 0 0 Z " fill="#17B898" transform="translate(390,177)"/>
<path d="M0 0 C1.5 1.375 1.5 1.375 3 3 C3 3.66 3 4.32 3 5 C3.66 5 4.32 5 5 5 C4.34 6.32 3.68 7.64 3 9 C0.70620251 5.55930376 0 4.27709699 0 0 Z " fill="#0B2425" transform="translate(202,173)"/>
<path d="M0 0 C2.97 0.495 2.97 0.495 6 1 C6 1.66 6 2.32 6 3 C6.66 3 7.32 3 8 3 C8 3.66 8 4.32 8 5 C2.25 3.375 2.25 3.375 0 0 Z " fill="#15AE8F" transform="translate(262,453)"/>
<path d="M0 0 C0.33 0.99 0.66 1.98 1 3 C2.94603274 3.59070014 2.94603274 3.59070014 5 4 C5.66 4.66 6.32 5.32 7 6 C4.69 5.67 2.38 5.34 0 5 C0 3.35 0 1.7 0 0 Z " fill="#112B29" transform="translate(364,352)"/>
<path d="M0 0 C0.33 0 0.66 0 1 0 C0.125 6.75 0.125 6.75 -1 9 C-1.66 9 -2.32 9 -3 9 C-2.01 6.03 -1.02 3.06 0 0 Z " fill="#012D2A" transform="translate(347,336)"/>
<path d="M0 0 C0.6875 1.625 0.6875 1.625 1 4 C-0.4375 7.25 -0.4375 7.25 -2 10 C-2.33 10 -2.66 10 -3 10 C-3.36629408 5.72656908 -2.40814077 3.51187196 0 0 Z " fill="#0A7462" transform="translate(349,328)"/>
<path d="M0 0 C-0.33 0.99 -0.66 1.98 -1 3 C-2.98 3.33 -4.96 3.66 -7 4 C-3.375 0 -3.375 0 0 0 Z " fill="#13CDA6" transform="translate(279,236)"/>
<path d="M0 0 C0.721875 0.103125 1.44375 0.20625 2.1875 0.3125 C0.8675 0.6425 -0.4525 0.9725 -1.8125 1.3125 C-2.1425 2.6325 -2.4725 3.9525 -2.8125 5.3125 C-4.4625 5.3125 -6.1125 5.3125 -7.8125 5.3125 C-3.50480769 0.38942308 -3.50480769 0.38942308 0 0 Z " fill="#072424" transform="translate(284.8125,226.6875)"/>
</svg>
